opsz8_wght1000.ufo
<glyph name="zero" format="2">
	<unicode hex="0030"/>
	<advance width="1160"/>
	<outline>
		<contour>
			<point x="55.0241608796" y="771.7916259766" type="qcurve" smooth="yes"/>
			<point x="118.4694733796" y="1117.7233276367"/>
			<point x="422.9382324219" y="1511.1627197266"/>
			<point x="692.6721801758" y="1510.0048828125" type="qcurve" smooth="yes"/>
			<point x="877.0948486328" y="1508.8470458984"/>
			<point x="1128.0565705476" y="1070.7609863281"/>
			<point x="1074.5098176179" y="730.2132568359" type="qcurve" smooth="yes"/>
			<point x="1020.801260489" y="390.2815551758"/>
			<point x="727.3104858398" y="-42.3156738281"/>
			<point x="420.4830322266" y="-40" type="qcurve" smooth="yes"/>
			<point x="218.1449584961" y="-37.6843261719"/>
			<point x="-5.943673593" y="428.1142578125"/>
		</contour>
		<contour>
			<point x="239.4033813477" y="774.317565918" type="qcurve" smooth="yes"/>
			<point x="185.5743408203" y="461.317565918"/>
			<point x="286.3175048828" y="71.7611694336"/>
			<point x="428.5837402344" y="71.7611694336" type="qcurve" smooth="yes"/>
			<point x="574.3165893555" y="71.7611694336"/>
			<point x="845.2370605469" y="454.2662353516"/>
			<point x="891.5977172852" y="738.2662353516" type="qcurve" smooth="yes"/>
			<point x="938.192565918" y="1020.2662353516"/>
			<point x="840.5204467773" y="1384.19921875"/>
			<point x="686.1208496094" y="1384.19921875" type="qcurve" smooth="yes"/>
			<point x="525.854675293" y="1384.19921875"/>
			<point x="289.232421875" y="1062.317565918"/>
		</contour>
	</outline>
</glyph>
<glyph name="one" format="2">
	<unicode hex="0031"/>
	<advance width="762"/>
	<outline>
		<contour>
			<point x="298.0108642578" y="88" type="line"/>
			<point x="314.0108642578" y="135"/>
			<point x="344.0108642578" y="259"/>
			<point x="359.0108642578" y="322" type="qcurve" smooth="yes"/>
			<point x="510.5114746094" y="969.5873413086" type="line"/>
			<point x="565.006652832" y="1290.3883666992" type="line"/>
			<point x="101.2661132812" y="980.7606811523" type="line"/>
			<point x="50.6595458984" y="1146.5616455078" type="line"/>
			<point x="480.7192382812" y="1540.5873413086" type="line"/>
			<point x="688.4077758789" y="1440.8098144531" type="line"/>
			<point x="675.857421875" y="1399.4304199219"/>
			<point x="680.1946411133" y="1306.9901123047"/>
			<point x="678.9417114258" y="1306.4725341797" type="qcurve" smooth="yes"/>
			<point x="549.8023071289" y="712.8350830078" type="line"/>
			<point x="453.2186279297" y="101" type="line"/>
			<point x="445.0975341797" y="-33" type="line"/>
		</contour>
	</outline>
</glyph>
<glyph name="two" format="2">
	<unicode hex="0032"/>
	<advance width="941"/>
	<outline>
		<contour>
			<point x="-136.489440918" y="-10" type="qcurve"/>
			<point x="-196.981262207" y="82.4403076172" type="line"/>
			<point x="-30.0353393555" y="186.2824707031" type="line" smooth="yes"/>
			<point x="351.9584960938" y="405.2893676758"/>
			<point x="833.8773193359" y="852.1024169922"/>
			<point x="829.95703125" y="1067.0789794922" type="qcurve" smooth="yes"/>
			<point x="827.41796875" y="1173.8040161133"/>
			<point x="661.5275268555" y="1295.5712280273"/>
			<point x="525.0987548828" y="1295.5712280273" type="qcurve" smooth="yes"/>
			<point x="382.2307128906" y="1295.5712280273"/>
			<point x="181.7188110352" y="1213.3599853516"/>
			<point x="86.1152954102" y="1137.0438232422" type="qcurve"/>
			<point x="24.0707397461" y="1211.8635253906" type="line"/>
			<point x="143.7297363281" y="1348.3820800781"/>
			<point x="409.676940918" y="1522.8377685547"/>
			<point x="593.5475463867" y="1522.8377685547" type="qcurve" smooth="yes"/>
			<point x="736.701171875" y="1522.8377685547"/>
			<point x="978.4564208984" y="1338.8377685547"/>
			<point x="987.1401977539" y="1161.8377685547" type="qcurve" smooth="yes"/>
			<point x="1001.0342407227" y="803.9866943359"/>
			<point x="44.0023193359" y="153.6539916992"/>
			<point x="-22.4600830078" y="45.0939941406" type="qcurve"/>
			<point x="-17.4085693359" y="39.4635620117" type="line"/>
			<point x="13.5923461914" y="56.0939941406"/>
			<point x="217.3276367188" y="80.6729125977"/>
			<point x="267.6957397461" y="79.4635620117" type="qcurve"/>
			<point x="324.3392333984" y="71.6342773438"/>
			<point x="564.8030395508" y="29.9916381836"/>
			<point x="651.5004272461" y="29.2984008789" type="qcurve"/>
			<point x="750.0673217773" y="186.9681396484" type="line"/>
			<point x="842.2263793945" y="171.16796875" type="line"/>
			<point x="766.9152832031" y="-20" type="line"/>
			<point x="704.5736083984" y="-7.6293945312"/>
			<point x="492.4802856445" y="61.2592773438"/>
			<point x="394.6645507812" y="64" type="qcurve" smooth="yes"/>
			<point x="281.5602416992" y="65"/>
			<point x="-42.8586425781" y="26"/>
		</contour>
	</outline>
</glyph>
<glyph name="three" format="2">
	<unicode hex="0033"/>
	<advance width="1082"/>
	<outline>
		<contour>
			<point x="-89" y="230.9278564453" type="qcurve"/>
			<point x="-89" y="297.0215454102"/>
			<point x="-21.1676635742" y="371.748046875"/>
			<point x="55.5615844727" y="371.169128418" type="qcurve"/>
			<point x="136.6140136719" y="371.169128418" type="line"/>
			<point x="136.4561767578" y="347.169128418"/>
			<point x="137.0350952148" y="308.169128418"/>
			<point x="139.0350952148" y="247.169128418" type="qcurve" smooth="yes"/>
			<point x="142.6140136719" y="162.5902099609"/>
			<point x="287.3200683594" y="61.5902099609"/>
			<point x="421.6893310547" y="61.5902099609" type="qcurve" smooth="yes"/>
			<point x="628.0303344727" y="61.5902099609"/>
			<point x="893.4619750977" y="297.3611450195"/>
			<point x="892.8830566406" y="463.1481323242" type="qcurve" smooth="yes"/>
			<point x="892.8830566406" y="595.0514526367"/>
			<point x="663.489440918" y="730.5146484375"/>
			<point x="445.470703125" y="741.5758666992" type="qcurve" smooth="yes"/>
			<point x="355.6057128906" y="745.893371582" type="line"/>
			<point x="373.6591186523" y="852.6100463867" type="line"/>
			<point x="463.0796508789" y="860.5267333984" type="line" smooth="yes"/>
			<point x="678.0034179688" y="878.3513183594"/>
			<point x="899.9296264648" y="1021.1539306641"/>
			<point x="900.5085449219" y="1141.4907226562" type="qcurve" smooth="yes"/>
			<point x="899.9296264648" y="1235.3497314453"/>
			<point x="765.8717651367" y="1325.5670776367"/>
			<point x="644.7848510742" y="1325.5670776367" type="qcurve" smooth="yes"/>
			<point x="481.6891479492" y="1325.5670776367"/>
			<point x="266.1035766602" y="1211.9451904297"/>
			<point x="226.467590332" y="1188.0139160156" type="qcurve"/>
			<point x="183.3583984375" y="1263.7544555664" type="line"/>
			<point x="228.4637451172" y="1341.0563354492"/>
			<point x="470.6801757812" y="1515.0419311523"/>
			<point x="663.891784668" y="1515.9122924805" type="qcurve" smooth="yes"/>
			<point x="808.5101318359" y="1516.7826538086"/>
			<point x="1015.9047851562" y="1342.1755371094"/>
			<point x="1015.9047851562" y="1177.7544555664" type="qcurve" smooth="yes"/>
			<point x="1015.9047851562" y="1027.6658935547"/>
			<point x="873.7084350586" y="842.822265625"/>
			<point x="729.4114379883" y="811.0807495117" type="qcurve"/>
			<point x="727.8325195312" y="804.0807495117" type="line"/>
			<point x="845.2200317383" y="781.5715942383"/>
			<point x="1018.4901123047" y="597.4042358398"/>
			<point x="1018.4901123047" y="427.6549072266" type="qcurve" smooth="yes"/>
			<point x="1020.2268676758" y="246.7367553711"/>
			<point x="684.7073974609" y="-34"/>
			<point x="360.1342163086" y="-34" type="qcurve" smooth="yes"/>
			<point x="135.6079101562" y="-34"/>
			<point x="-89" y="130.9821777344"/>
		</contour>
	</outline>
</glyph>
<glyph name="four" format="2">
	<unicode hex="0034"/>
	<advance width="1325"/>
	<outline>
		<contour>
			<point x="-26" y="414.6411743164" type="line"/>
			<point x="13" y="539" type="line"/>
			<point x="1189.998840332" y="1558.6711425781" type="line"/>
			<point x="1143.5950317383" y="1409.6711425781" type="line"/>
			<point x="1161.5950317383" y="1360.6711425781" type="line"/>
			<point x="965.5947875977" y="493.8355712891" type="line"/>
			<point x="959.5947875977" y="462.8355712891" type="line"/>
			<point x="921.4279174805" y="216" type="line"/>
			<point x="921.4279174805" y="86" type="line"/>
			<point x="879.8317260742" y="-34" type="line"/>
			<point x="729.8317260742" y="53" type="line"/>
			<point x="853.8317260742" y="475.8355712891" type="line"/>
			<point x="860.8317260742" y="507.8355712891" type="line"/>
			<point x="1039.9526367188" y="1317.2826538086" type="line"/>
			<point x="168" y="559" type="line"/>
			<point x="188.9732666016" y="548.4468383789" type="line"/>
			<point x="943.5585327148" y="553.1494140625" type="line"/>
			<point x="1262.4774780273" y="563.1494140625" type="line"/>
			<point x="1235.4657592773" y="419.6411743164" type="line"/>
			<point x="923.5468139648" y="418.9830932617" type="line"/>
		</contour>
	</outline>
</glyph>
<glyph name="five" format="2">
	<unicode hex="0035"/>
	<advance width="1144"/>
	<outline>
		<contour>
			<point x="-44" y="245" type="qcurve" smooth="yes"/>
			<point x="-44" y="305.6065673828"/>
			<point x="54.5156860352" y="433.0609130859"/>
			<point x="143" y="437.1616210938" type="qcurve"/>
			<point x="200.5808105469" y="435.1616210938" type="line"/>
			<point x="200.5808105469" y="309.2623291016" type="line" smooth="yes"/>
			<point x="200.5808105469" y="199.0571899414"/>
			<point x="330.6807250977" y="69.6604614258"/>
			<point x="489.9754638672" y="69.6604614258" type="qcurve" smooth="yes"/>
			<point x="698.6212768555" y="69.6604614258"/>
			<point x="925.6205444336" y="309.0989379883"/>
			<point x="918.8358764648" y="543.3349609375" type="qcurve" smooth="yes"/>
			<point x="912.6301269531" y="739.9046630859"/>
			<point x="589.9261474609" y="835.5972290039"/>
			<point x="359.7785644531" y="766.0188598633" type="qcurve" smooth="yes"/>
			<point x="249.3072509766" y="732.7561645508" type="line"/>
			<point x="187.9245605469" y="838.1693115234" type="line"/>
			<point x="349.3418579102" y="1414.6711425781" type="line"/>
			<point x="433.9207763672" y="1481.6711425781" type="line"/>
			<point x="1077.4817504883" y="1481.6711425781" type="line"/>
			<point x="1055.5737915039" y="1414.5756835938" type="line"/>
			<point x="505.0921020508" y="1414.5756835938" type="line"/>
			<point x="484.0921020508" y="1403.5756835938" type="line"/>
			<point x="432.8887329102" y="1193.2436523438"/>
			<point x="361.7467651367" y="918.2708740234"/>
			<point x="314.5030517578" y="848.4901733398" type="qcurve"/>
			<point x="674.0272216797" y="981.2741699219" type="line"/>
			<point x="812.1396484375" y="1012.5368652344"/>
			<point x="1067.1194458008" y="778.0463256836"/>
			<point x="1075.0619506836" y="559.3349609375" type="qcurve" smooth="yes"/>
			<point x="1085.4034423828" y="284.8173828125"/>
			<point x="684.0477294922" y="-34"/>
			<point x="372.9323120117" y="-34" type="qcurve" smooth="yes"/>
			<point x="189.5529785156" y="-34"/>
			<point x="-44" y="125"/>
		</contour>
	</outline>
</glyph>
<glyph name="six" format="2">
	<unicode hex="0036"/>
	<advance width="1042"/>
	<outline>
		<contour>
			<point x="31.2632446289" y="519.505859375" type="qcurve" smooth="yes"/>
			<point x="28.7373046875" y="908.0857543945"/>
			<point x="668.4708251953" y="1555.3659667969"/>
			<point x="1151.8383789062" y="1540.1712646484" type="qcurve"/>
			<point x="1163.2269897461" y="1449.3642578125" type="line"/>
			<point x="659.5596313477" y="1375.6595458984"/>
			<point x="177.8181762695" y="846.6512451172"/>
			<point x="155.6962890625" y="472.025390625" type="qcurve" smooth="yes"/>
			<point x="136.3458862305" y="248.7189941406"/>
			<point x="250.6156616211" y="73.6187744141"/>
			<point x="427.2857055664" y="64.039855957" type="qcurve" smooth="yes"/>
			<point x="585.2299194336" y="51.882019043"/>
			<point x="807.4219970703" y="285.7315063477"/>
			<point x="822.3387451172" y="505.5759887695" type="qcurve" smooth="yes"/>
			<point x="842.6657714844" y="662.3934326172"/>
			<point x="760.9649047852" y="787.6685180664"/>
			<point x="667.6508789062" y="788.2474365234" type="qcurve" smooth="yes"/>
			<point x="599.915222168" y="788.8263549805"/>
			<point x="486.3893432617" y="733.7924804688"/>
			<point x="440.5002441406" y="695.2340698242" type="qcurve"/>
			<point x="425.4913330078" y="777.4706420898" type="line"/>
			<point x="443.3225708008" y="817.0124511719"/>
			<point x="551.0919799805" y="893.0718383789"/>
			<point x="631.3145141602" y="892.4929199219" type="qcurve" smooth="yes"/>
			<point x="763.4276123047" y="891.3350830078"/>
			<point x="931.7642822266" y="678.9658813477"/>
			<point x="921.0269775391" y="493.3334350586" type="qcurve" smooth="yes"/>
			<point x="909.8685913086" y="249.2640380859"/>
			<point x="604.81640625" y="-40.578918457"/>
			<point x="381.6405639648" y="-40" type="qcurve" smooth="yes"/>
			<point x="240.1356811523" y="-39.421081543"/>
			<point x="32.4735107422" y="236.6365966797"/>
		</contour>
	</outline>
</glyph>
<glyph name="seven" format="2">
	<unicode hex="0037"/>
	<advance width="1007"/>
	<outline>
		<contour>
			<point x="8.3424072266" y="1267.9926147461" type="line"/>
			<point x="5.2044677734" y="1481.6711425781" type="line"/>
			<point x="1079.2080078125" y="1481.6711425781" type="line"/>
			<point x="1115.3325805664" y="1371.8631591797" type="line"/>
			<point x="847.7560424805" y="1098.3436279297"/>
			<point x="462.1804199219" y="310.4143066406"/>
			<point x="353.3362426758" y="31.1301269531" type="qcurve"/>
			<point x="237.4545288086" y="-3.5002441406" type="line"/>
			<point x="136.1586303711" y="8.8154296875" type="line"/>
			<point x="282.9431762695" y="397.7704467773"/>
			<point x="844.5571899414" y="1160.1643066406"/>
			<point x="1039.2130737305" y="1449.8595581055" type="qcurve"/>
			<point x="1025.7737426758" y="1468.8595581055" type="line"/>
			<point x="190.5006103516" y="1471.09375" type="line"/>
			<point x="110.3436279297" y="1268.1868286133" type="line"/>
		</contour>
	</outline>
</glyph>
<glyph name="eight" format="2">
	<unicode hex="0038"/>
	<advance width="1095"/>
	<outline>
		<contour>
			<point x="622.3004760742" y="881.014465332" type="qcurve"/>
			<point x="738.0482788086" y="801.6559448242" type="line"/>
			<point x="575.1986694336" y="737.2244873047"/>
			<point x="341.0513916016" y="450.8165893555"/>
			<point x="346.173828125" y="331.0516967773" type="qcurve" smooth="yes"/>
			<point x="349.3928833008" y="233.1689453125"/>
			<point x="450.5532836914" y="107.0955810547"/>
			<point x="576.4798583984" y="107.6744995117" type="qcurve" smooth="yes"/>
			<point x="697.4427490234" y="108.8323364258"/>
			<point x="948.0079345703" y="282.236328125"/>
			<point x="941.9688110352" y="414.6175537109" type="qcurve" smooth="yes"/>
			<point x="935.8463745117" y="553.2276611328"/>
			<point x="692.7523193359" y="728.7626342773"/>
			<point x="574.1575317383" y="824.6419067383" type="qcurve" smooth="yes"/>
			<point x="486.2577514648" y="904.1258544922"/>
			<point x="263.3822631836" y="1136.6813354492"/>
			<point x="251.4706420898" y="1228.7102050781" type="qcurve" smooth="yes"/>
			<point x="241.2957763672" y="1277.1926879883"/>
			<point x="415.3856201172" y="1523.1738891602"/>
			<point x="681.2512207031" y="1524.3317260742" type="qcurve" smooth="yes"/>
			<point x="906.703125" y="1525.5728759766"/>
			<point x="1046.0079345703" y="1344.0151367188"/>
			<point x="1051.0381469727" y="1268.4119262695" type="qcurve" smooth="yes"/>
			<point x="1055.7729492188" y="1103.4141845703"/>
			<point x="783.8050537109" y="900.7396850586"/>
			<point x="549.9725341797" y="816.1616210938" type="qcurve"/>
			<point x="423.9882202148" y="887.9453735352" type="line"/>
			<point x="606.7487792969" y="968.3660888672"/>
			<point x="769.8646850586" y="1206.44921875"/>
			<point x="756.3772583008" y="1276.2934570312" type="qcurve" smooth="yes"/>
			<point x="744.1309814453" y="1307.979675293"/>
			<point x="704.5270385742" y="1353.8225708008"/>
			<point x="632.3728027344" y="1353.7392578125" type="qcurve" smooth="yes"/>
			<point x="489.0997314453" y="1353.1603393555"/>
			<point x="353.9007568359" y="1237.8711547852"/>
			<point x="357.624206543" y="1149.4809570312" type="qcurve" smooth="yes"/>
			<point x="361.8432617188" y="1087.1380004883"/>
			<point x="544.1694946289" y="928.1683349609"/>
			<point x="719.3106689453" y="824.5761108398" type="qcurve" smooth="yes"/>
			<point x="877.4201660156" y="729.6233520508"/>
			<point x="1031.7703857422" y="480.5737915039"/>
			<point x="1040.1251831055" y="406.739440918" type="qcurve" smooth="yes"/>
			<point x="1052.6990356445" y="265.6641235352"/>
			<point x="746.887512207" y="-36.8421630859"/>
			<point x="462.2307739258" y="-38" type="qcurve" smooth="yes"/>
			<point x="258.1143188477" y="-38.578918457"/>
			<point x="-22.890625" y="150.8428344727"/>
			<point x="-33.0654907227" y="306.7556762695" type="qcurve" smooth="yes"/>
			<point x="-44.4815063477" y="491.1240844727"/>
			<point x="343.8753051758" y="809.9638671875"/>
		</contour>
	</outline>
</glyph>
<glyph name="nine" format="2">
	<unicode hex="0039"/>
	<advance width="1034"/>
	<outline>
		<contour>
			<point x="-158.5790405273" y="-67.421081543" type="qcurve"/>
			<point x="-170.3009033203" y="23.3026123047" type="line"/>
			<point x="328.1561889648" y="97.0073242188"/>
			<point x="809.4177856445" y="634.5298461914"/>
			<point x="832.6975097656" y="997.2119140625" type="qcurve" smooth="yes"/>
			<point x="852.0479125977" y="1231.6358642578"/>
			<point x="718.0504760742" y="1401.4990844727"/>
			<point x="577.0101318359" y="1411.0780029297" type="qcurve" smooth="yes"/>
			<point x="422.3820800781" y="1422.2358398438"/>
			<point x="196.9191894531" y="1202.746887207"/>
			<point x="169.7103271484" y="989.5161132812" type="qcurve" smooth="yes"/>
			<point x="141.7372436523" y="824.6986694336"/>
			<point x="209.1159667969" y="699.4235839844"/>
			<point x="315.9771118164" y="698.8446655273" type="qcurve" smooth="yes"/>
			<point x="383.1338500977" y="698.2657470703"/>
			<point x="481.1754150391" y="726.7680053711"/>
			<point x="528.0012817383" y="750.0922241211" type="qcurve"/>
			<point x="540.560546875" y="662.08984375" type="line"/>
			<point x="500.729309082" y="629.548034668"/>
			<point x="423.9598999023" y="582.4886474609"/>
			<point x="354.7373657227" y="583.067565918" type="qcurve" smooth="yes"/>
			<point x="222.0453491211" y="584.225402832"/>
			<point x="56.8637084961" y="790.2714233398"/>
			<point x="67.0220947266" y="975.9038696289" type="qcurve" smooth="yes"/>
			<point x="78.7593994141" y="1219.9732666016"/>
			<point x="383.8115844727" y="1513.3291015625"/>
			<point x="606.4085083008" y="1512.7501831055" type="qcurve" smooth="yes"/>
			<point x="734.6989746094" y="1512.1712646484"/>
			<point x="956.1544799805" y="1225.3854370117"/>
			<point x="957.3647460938" y="953.2443237305" type="qcurve" smooth="yes"/>
			<point x="959.3117675781" y="564.6644287109"/>
			<point x="304.2523193359" y="-82.6157836914"/>
		</contour>
	</outline>
</glyph>
<glyph name="B" format="2">
	<unicode hex="0042"/>
	<advance width="1109"/>
	<outline>
		<contour>
			<point x="-71.2844848633" y="0" type="line"/>
			<point x="-59.104675293" y="99.9990234375" type="line"/>
			<point x="140.1824951172" y="116.9990234375" type="line"/>
			<point x="274.0026855469" y="819" type="line"/>
			<point x="384.8228759766" y="1364.0009765625" type="line"/>
			<point x="156.1990356445" y="1387.0009765625" type="line"/>
			<point x="165.4977416992" y="1500" type="line"/>
			<point x="594.7420654297" y="1500" type="line" smooth="yes"/>
			<point x="773.0867919922" y="1500"/>
			<point x="1005.1735839844" y="1332"/>
			<point x="1003.6184082031" y="1163" type="qcurve" smooth="yes"/>
			<point x="1001.7930908203" y="1016"/>
			<point x="825.1572265625" y="854"/>
			<point x="716.9012451172" y="830" type="qcurve"/>
			<point x="716.6893310547" y="823" type="line"/>
			<point x="850.7259521484" y="781"/>
			<point x="998.1065673828" y="574"/>
			<point x="980.8452148438" y="413" type="qcurve" smooth="yes"/>
			<point x="959.5838623047" y="226"/>
			<point x="668.76171875" y="0"/>
			<point x="377.9809570312" y="0" type="qcurve" smooth="yes"/>
		</contour>
		<contour>
			<point x="289.0596923828" y="127.4746704102" type="line"/>
			<point x="334.9411010742" y="109.1704101562" type="line"/>
			<point x="407.2526245117" y="109.1704101562" type="line" smooth="yes"/>
			<point x="589.7794799805" y="109.1704101562"/>
			<point x="810.1446533203" y="293.6201171875"/>
			<point x="824.7803955078" y="400.6201171875" type="qcurve" smooth="yes"/>
			<point x="843.4161376953" y="528.6201171875"/>
			<point x="707.8901977539" y="737.3120727539"/>
			<point x="544.2144165039" y="737.3120727539" type="qcurve" smooth="yes"/>
			<point x="398.1973266602" y="737.3120727539" type="line"/>
			<point x="396.1973266602" y="721.858581543" type="line"/>
		</contour>
		<contour>
			<point x="426.4770507812" y="874.9553833008" type="line"/>
			<point x="420.9925537109" y="849.5328979492" type="line"/>
			<point x="548.8544311523" y="849.5328979492" type="line" smooth="yes"/>
			<point x="690.9540405273" y="849.5328979492"/>
			<point x="869.9579467773" y="1006.4729003906"/>
			<point x="881.8353881836" y="1134.4729003906" type="qcurve" smooth="yes"/>
			<point x="892.1068725586" y="1240.4729003906"/>
			<point x="762.3953857422" y="1381.164855957"/>
			<point x="621.9315185547" y="1381.164855957" type="qcurve" smooth="yes"/>
			<point x="563.3153076172" y="1381.164855957" type="line"/>
			<point x="527.4647827148" y="1363.6493530273" type="line"/>
		</contour>
	</outline>
	<anchor name="bottom" x="630" y="0"/>
	<anchor name="top" x="630" y="1500"/>
</glyph>
<glyph name="C" format="2">
	<unicode hex="0043"/>
	<advance width="1227"/>
	<outline>
		<contour>
			<point x="98.0698764676" y="809" type="qcurve" smooth="yes"/>
			<point x="161.0698764676" y="1199"/>
			<point x="690.7852084989" y="1544.0231933594"/>
			<point x="969.4054477567" y="1517.4669189453" type="qcurve" smooth="yes"/>
			<point x="1018.0255649442" y="1514.8322753906"/>
			<point x="1198.9166325307" y="1431.1561279297"/>
			<point x="1204.3201969838" y="1421.5452880859" type="qcurve"/>
			<point x="1213.5133122182" y="1406.8518066406" type="line"/>
			<point x="1231.1544254994" y="1388.4713134766" type="line"/>
			<point x="1173.9668644643" y="978.4250488281" type="line"/>
			<point x="1078.4817570424" y="978.4250488281" type="line"/>
			<point x="1093.368719933" y="1294.1414794922" type="line"/>
			<point x="1120.0163029408" y="1314.4393310547"/>
			<point x="1023.5824650502" y="1367.9942626953"/>
			<point x="989.6502751088" y="1372.2565917969" type="qcurve" smooth="yes"/>
			<point x="681.8643864369" y="1418.5254516602"/>
			<point x="319.0732944364" y="1101"/>
			<point x="275.0732944364" y="754" type="qcurve" smooth="yes"/>
			<point x="234.3767001981" y="447"/>
			<point x="387.6320255971" y="130.9425048828"/>
			<point x="566.3233708119" y="115.9251708984" type="qcurve" smooth="yes"/>
			<point x="793.8217838979" y="93.2604980469"/>
			<point x="976.6015537137" y="220.8661499023"/>
			<point x="1056.6702792997" y="321.4068603516" type="qcurve"/>
			<point x="1101.5789707059" y="297.4068603516" type="line"/>
			<point x="1147.0162876004" y="227" type="line"/>
			<point x="1093.5395573354" y="103.8848876953"/>
			<point x="865.496832726" y="-38.1915283203"/>
			<point x="638.6000278348" y="-25.4002685547" type="qcurve" smooth="yes"/>
			<point x="392.3041293973" y="-14.6655273438"/>
			<point x="28.7394321317" y="395"/>
		</contour>
	</outline>
	<anchor name="bottom" x="596" y="0"/>
	<anchor name="top" x="906" y="1500"/>
</glyph>
<glyph name="E" format="2">
	<unicode hex="0045"/>
	<advance width="1181"/>
	<outline>
		<contour>
			<point x="-67.0523681641" y="0" type="line"/>
			<point x="-45.1986694336" y="100.9990234375" type="line"/>
			<point x="140.8273925781" y="120.9990234375" type="line"/>
			<point x="277.6475830078" y="806" type="line"/>
			<point x="384.4677734375" y="1364.0009765625" type="line"/>
			<point x="160.5178222656" y="1386.0009765625" type="line"/>
			<point x="171.46875" y="1500" type="line"/>
			<point x="1186.6405029297" y="1500" type="line"/>
			<point x="1145.7188110352" y="1148.4494018555" type="line"/>
			<point x="1044.9766235352" y="1148.4494018555" type="line"/>
			<point x="1010.483581543" y="1372.6493530273" type="line"/>
			<point x="581.614074707" y="1372.6493530273" type="line"/>
			<point x="541.614074707" y="1342.6493530273" type="line"/>
			<point x="433.7749023438" y="783" type="line"/>
			<point x="328.4202270508" y="210.8971557617" type="line"/>
			<point x="389.4202270508" y="130.8971557617" type="line"/>
			<point x="846.5629882812" y="130.8971557617" type="line"/>
			<point x="971.9725341797" y="388.9144897461" type="line"/>
			<point x="1081.5034179688" y="388.9144897461" type="line"/>
			<point x="974.6405029297" y="0" type="line"/>
		</contour>
		<contour>
			<point x="178.5069580078" y="741.1512451172" type="line"/>
			<point x="190.7916870117" y="825.2596435547" type="line"/>
			<point x="829.7838745117" y="842.2596435547" type="line"/>
			<point x="887.9395141602" y="978.4587402344" type="line"/>
			<point x="964.9634399414" y="978.4587402344" type="line"/>
			<point x="886.4356689453" y="558.8112792969" type="line"/>
			<point x="799.3413085938" y="558.8112792969" type="line"/>
			<point x="802.623046875" y="722.1512451172" type="line"/>
		</contour>
	</outline>
	<anchor name="bottom" x="518" y="0"/>
	<anchor name="ogonek" x="827" y="0"/>
	<anchor name="top" x="789" y="1500"/>
	<anchor name="tonos" x="81" y="1500"/>
</glyph>
<glyph name="H" format="2">
	<unicode hex="0048"/>
	<advance width="1589"/>
	<outline>
		<contour>
			<point x="-68.4606323242" y="0" type="line"/>
			<point x="-47.2808227539" y="100.9990234375" type="line"/>
			<point x="139.3974609375" y="120.9990234375" type="line"/>
			<point x="276.2176513672" y="806" type="line"/>
			<point x="383.0378417969" y="1365.0009765625" type="line"/>
			<point x="158.4678955078" y="1387.0009765625" type="line"/>
			<point x="165.0604858398" y="1500" type="line"/>
			<point x="757.3799438477" y="1500" type="line"/>
			<point x="737.5262451172" y="1388.0009765625" type="line"/>
			<point x="544.8262939453" y="1365.0009765625" type="line"/>
			<point x="429.2210693359" y="777" type="line"/>
			<point x="307.4008789062" y="120.9990234375" type="line"/>
			<point x="511.9924926758" y="100.9990234375" type="line"/>
			<point x="504.0737915039" y="0" type="line"/>
		</contour>
		<contour>
			<point x="334.5079956055" y="726.3314819336" type="line"/>
			<point x="348.4885864258" y="842.5697021484" type="line"/>
			<point x="750.328918457" y="839.5697021484" type="line"/>
			<point x="1149.7391967773" y="842.5697021484" type="line"/>
			<point x="1135.758605957" y="726.3314819336" type="line"/>
			<point x="729.0917358398" y="715.3314819336" type="line"/>
		</contour>
		<contour>
			<point x="809.9387817383" y="0" type="line"/>
			<point x="831.1185913086" y="100.9990234375" type="line"/>
			<point x="1027.796875" y="120.9990234375" type="line"/>
			<point x="1156.6170654297" y="772" type="line"/>
			<point x="1265.4372558594" y="1365.0009765625" type="line"/>
			<point x="1056.8673095703" y="1388.0009765625" type="line"/>
			<point x="1063.4598999023" y="1501" type="line"/>
			<point x="1653.4204101562" y="1501" type="line"/>
			<point x="1633.5667114258" y="1388.0009765625" type="line"/>
			<point x="1432.1928710938" y="1365.0009765625" type="line"/>
			<point x="1310.3726806641" y="755" type="line"/>
			<point x="1194.5524902344" y="120.9990234375" type="line"/>
			<point x="1407.8179931641" y="100.9990234375" type="line"/>
			<point x="1399.8992919922" y="0" type="line"/>
		</contour>
	</outline>
	<anchor name="bottom" x="607" y="0"/>
	<anchor name="center" x="820" y="1079"/>
	<anchor name="top" x="950" y="1500"/>
	<anchor name="tonos" x="81" y="1500"/>
	<anchor name="cy_descender" x="1399" y="100"/>
</glyph>
<glyph name="I" format="2">
	<unicode hex="0049"/>
	<advance width="780"/>
	<outline>
		<contour>
			<point x="-66.4440917969" y="0" type="line"/>
			<point x="-49.5903930664" y="98.9990234375" type="line"/>
			<point x="179.3706665039" y="118.9990234375" type="line"/>
			<point x="325.5169677734" y="806" type="line"/>
			<point x="430.9571533203" y="1365.0009765625" type="line"/>
			<point x="169.7783203125" y="1388.0009765625" type="line"/>
			<point x="177.0770263672" y="1500" type="line"/>
			<point x="845.1009521484" y="1500" type="line"/>
			<point x="824.5411376953" y="1388.0009765625" type="line"/>
			<point x="588.580078125" y="1365.0009765625" type="line"/>
			<point x="470.1398925781" y="790" type="line"/>
			<point x="336.9935913086" y="118.9990234375" type="line"/>
			<point x="575.1724243164" y="98.9990234375" type="line"/>
			<point x="568.3187255859" y="0" type="line"/>
		</contour>
	</outline>
	<anchor name="bottom" x="220" y="0"/>
	<anchor name="ogonek" x="356" y="0"/>
	<anchor name="top" x="503" y="1500"/>
	<anchor name="tonos" x="81" y="1500"/>
	<anchor name="yu_dash" x="365" y="795"/>
	<anchor name="liga" x="712" y="0"/>
</glyph>
<glyph name="J" format="2">
	<unicode hex="004A"/>
	<advance width="801"/>
	<outline>
		<contour>
			<point x="-147.9834594727" y="-207.9995117188" type="qcurve"/>
			<point x="-105.6734008789" y="-55.5674438477" type="line"/>
			<point x="-80.0972290039" y="-67.5674438477"/>
			<point x="18.633605957" y="-86.5674438477"/>
			<point x="78.4846801758" y="-86.5674438477" type="qcurve" smooth="yes"/>
			<point x="170.7297973633" y="-86.5674438477"/>
			<point x="260.8540039062" y="1.1903076172"/>
			<point x="287.6117553711" y="146.4325561523" type="qcurve" smooth="yes"/>
			<point x="398.9349365234" y="754" type="line"/>
			<point x="507.3751220703" y="1367.0009765625" type="line"/>
			<point x="275.3874511719" y="1390.0009765625" type="line"/>
			<point x="284.8861083984" y="1500" type="line"/>
			<point x="886.3011474609" y="1500" type="line"/>
			<point x="865.8024902344" y="1390.0009765625" type="line"/>
			<point x="668.3780517578" y="1367.0009765625" type="line"/>
			<point x="541.5578613281" y="754" type="line"/>
			<point x="454.924621582" y="234.0004882812" type="line" smooth="yes"/>
			<point x="412.6912841797" y="-15.9995117188"/>
			<point x="185.9650268555" y="-260.9995117188"/>
			<point x="49.1408081055" y="-260.9995117188" type="qcurve" smooth="yes"/>
			<point x="-31.0143432617" y="-260.9995117188"/>
			<point x="-151.0571899414" y="-221.9995117188"/>
		</contour>
	</outline>
	<anchor name="bottom" x="376" y="-208"/>
	<anchor name="top" x="533" y="1500"/>
	<anchor name="_liga" x="0" y="0"/>
</glyph>
<glyph name="P" format="2">
	<unicode hex="0050"/>
	<advance width="1132"/>
	<outline>
		<contour>
			<point x="-68.3494873047" y="0" type="line"/>
			<point x="-47.4307861328" y="101.9990234375" type="line"/>
			<point x="134.9425048828" y="113.9990234375" type="line"/>
			<point x="276.0026855469" y="806" type="line"/>
			<point x="384.6828613281" y="1366.0009765625" type="line"/>
			<point x="156.1340332031" y="1384.0009765625" type="line"/>
			<point x="162.0849609375" y="1500" type="line"/>
			<point x="900.1043701172" y="1500" type="line" smooth="yes"/>
			<point x="956.5888671875" y="1500"/>
			<point x="1157.6012573242" y="1272.4108886719"/>
			<point x="1133.1166381836" y="1060.8837890625" type="qcurve" smooth="yes"/>
			<point x="1107.8742675781" y="848.8411865234"/>
			<point x="856.9576416016" y="588.767578125"/>
			<point x="674.0244140625" y="588.767578125" type="qcurve" smooth="yes"/>
			<point x="543.1069335938" y="588.767578125"/>
			<point x="330.3457641602" y="611.2526245117"/>
			<point x="289.3154296875" y="618.0098266602" type="qcurve"/>
			<point x="314.7495117188" y="741" type="line"/>
			<point x="377.388671875" y="732"/>
			<point x="474.3588867188" y="719"/>
			<point x="544.8823242188" y="719" type="qcurve" smooth="yes"/>
			<point x="714.521484375" y="719"/>
			<point x="921.1015625" y="875.2132568359"/>
			<point x="948.1015625" y="1039.2132568359" type="qcurve" smooth="yes"/>
			<point x="970.1015625" y="1178.2132568359"/>
			<point x="831.9457397461" y="1375.7617797852"/>
			<point x="657.8495483398" y="1375.7617797852" type="qcurve" smooth="yes"/>
			<point x="571.9218139648" y="1375.7617797852" type="line"/>
			<point x="538.1022949219" y="1345.1864013672" type="line"/>
			<point x="417.7495117188" y="764" type="line"/>
			<point x="301.6893310547" y="117.9990234375" type="line"/>
			<point x="540.4559326172" y="98.9990234375" type="line"/>
			<point x="522.5372314453" y="0" type="line"/>
		</contour>
	</outline>
	<anchor name="bottom" x="634" y="0"/>
	<anchor name="top" x="634" y="1500"/>
</glyph>
<glyph name="U" format="2">
	<unicode hex="0055"/>
	<advance width="1345"/>
	<outline>
		<contour>
			<point x="78.7980957031" y="1388.0009765625" type="line"/>
			<point x="87.4229125977" y="1500" type="line"/>
			<point x="723.5619728782" y="1500" type="line"/>
			<point x="704.9371559837" y="1388.0009765625" type="line"/>
			<point x="464.2475585938" y="1354.0009765625" type="line"/>
			<point x="352.8073730469" y="794" type="line" smooth="yes"/>
			<point x="329.7648925781" y="676.645324707"/>
			<point x="294.6915893555" y="436.021484375"/>
			<point x="299.670859597" y="336.6047973633" type="qcurve" smooth="yes"/>
			<point x="310.8473510742" y="220.4169311523"/>
			<point x="399.4038307884" y="48.8595581055"/>
			<point x="510.8926613548" y="40.8595581055" type="qcurve" smooth="yes"/>
			<point x="714.1097023704" y="30.8595581055"/>
			<point x="904.1699440696" y="247.2268676758"/>
			<point x="950.0739357688" y="477.0541992188" type="qcurve" smooth="yes"/>
			<point x="1011.7967751243" y="794" type="line"/>
			<point x="1119.2369606712" y="1354.0009765625" type="line"/>
			<point x="873.993125222" y="1388.0009765625" type="line"/>
			<point x="892.2238991477" y="1500" type="line"/>
			<point x="1520.7825539329" y="1500" type="line"/>
			<point x="1502.1577370384" y="1388.0009765625" type="line"/>
			<point x="1273.4577858665" y="1354.0009765625" type="line"/>
			<point x="1163.6235573509" y="794" type="line"/>
			<point x="1104.6235573509" y="478" type="line" smooth="yes"/>
			<point x="1056.4996559837" y="218.2311401367"/>
			<point x="775.4051125266" y="-47.7331542969"/>
			<point x="526.3250954368" y="-47.7331542969" type="qcurve" smooth="yes"/>
			<point x="342.691184304" y="-47.7331542969"/>
			<point x="156.0836181641" y="218"/>
			<point x="144.9071266868" y="416" type="qcurve" smooth="yes"/>
			<point x="139.9278564453" y="519"/>
			<point x="165.9278564453" y="706"/>
			<point x="185.9278564453" y="794" type="qcurve" smooth="yes"/>
			<point x="303.3680419922" y="1354.0009765625" type="line"/>
		</contour>
	</outline>
	<anchor name="bottom" x="588" y="0"/>
	<anchor name="ogonek" x="810" y="0"/>
	<anchor name="top" x="908" y="1500"/>
	<anchor name="topright" x="1561" y="1500"/>
</glyph>
<glyph name="V" format="2">
	<unicode hex="0056"/>
	<advance width="1157"/>
	<outline>
		<contour>
			<point x="12.6071777344" y="1385.3409423828" type="line"/>
			<point x="26.8947753906" y="1500" type="line"/>
			<point x="579.1789550781" y="1500" type="line"/>
			<point x="566.0313720703" y="1390.6610107422" type="line"/>
			<point x="364.7780761719" y="1354.0009765625" type="line"/>
			<point x="421.1628417969" y="731.3856811523" type="line"/>
			<point x="441.0704956055" y="474.3544921875" type="line"/>
			<point x="461.8639526367" y="287.5845947266" type="line"/>
			<point x="468.8639526367" y="287.5845947266" type="line"/>
			<point x="564.7274169922" y="473.5298461914" type="line"/>
			<point x="758.142578125" y="853.5137939453" type="line"/>
			<point x="1009.1895751953" y="1353.0009765625" type="line"/>
			<point x="800.1012573242" y="1389.2810058594" type="line"/>
			<point x="823.6399536133" y="1500" type="line"/>
			<point x="1386.9837036133" y="1500" type="line"/>
			<point x="1352.3049926758" y="1383.9609375" type="line"/>
			<point x="1154.2567138672" y="1353.0009765625" type="line"/>
			<point x="846.1069335938" y="793.8547363281" type="line"/>
			<point x="427.0698242188" y="0" type="line"/>
			<point x="364.4660644531" y="0" type="line"/>
			<point x="280.5018310547" y="745.1407470703" type="line"/>
			<point x="221.9793701172" y="1354.0009765625" type="line"/>
		</contour>
	</outline>
	<anchor name="bottom" x="373" y="0"/>
	<anchor name="top" x="743" y="1500"/>
</glyph>
<glyph name="X" format="2">
	<unicode hex="0058"/>
	<advance width="1152"/>
	<outline>
		<contour>
			<point x="-178.8173217773" y="0" type="line"/>
			<point x="-153.8986206055" y="97.9990234375" type="line"/>
			<point x="51.3224487305" y="131.9990234375" type="line"/>
			<point x="514.7411499023" y="762.5753173828" type="line"/>
			<point x="315.2543945312" y="1363.0009765625" type="line"/>
			<point x="134.685546875" y="1397.0009765625" type="line"/>
			<point x="133.9842529297" y="1500" type="line"/>
			<point x="693.740234375" y="1500" type="line"/>
			<point x="694.4415283203" y="1397.0009765625" type="line"/>
			<point x="496.8510131836" y="1363.0009765625" type="line"/>
			<point x="605.8080444336" y="1016.1168823242" type="line"/>
			<point x="629.8516235352" y="905.5496826172" type="line"/>
			<point x="641.8516235352" y="905.5496826172" type="line"/>
			<point x="728.9305419922" y="1033.3137817383" type="line"/>
			<point x="930.8643188477" y="1357.0009765625" type="line"/>
			<point x="762.0126953125" y="1397.0009765625" type="line"/>
			<point x="795.3114013672" y="1500" type="line"/>
			<point x="1322.1369018555" y="1500" type="line"/>
			<point x="1295.8381958008" y="1397.0009765625" type="line"/>
			<point x="1090.3560180664" y="1363.0009765625" type="line"/>
			<point x="670.382019043" y="794.6903076172" type="line"/>
			<point x="886.189453125" y="126.9990234375" type="line"/>
			<point x="1079.3671875" y="92.9990234375" type="line"/>
			<point x="1094.4484863281" y="0" type="line"/>
			<point x="543.3150024414" y="0" type="line"/>
			<point x="528.2337036133" y="92.9990234375" type="line"/>
			<point x="712.1503295898" y="126.9990234375" type="line"/>
			<point x="581.9114990234" y="537.4088134766" type="line"/>
			<point x="555.1243896484" y="649.46484375" type="line"/>
			<point x="543.1243896484" y="649.46484375" type="line"/>
			<point x="453.6233520508" y="526.0045166016" type="line"/>
			<point x="208.8141479492" y="131.9990234375" type="line"/>
			<point x="409.6657714844" y="97.9990234375" type="line"/>
			<point x="393.5523071289" y="0" type="line"/>
		</contour>
	</outline>
	<anchor name="bottom" x="453" y="0"/>
	<anchor name="top" x="723" y="1500"/>
	<anchor name="cy_descender" x="1125" y="100"/>
	<anchor name="center" x="591" y="791"/>
</glyph>
<glyph name="Y" format="2">
	<unicode hex="0059"/>
	<advance width="1143"/>
	<outline>
		<contour>
			<point x="106.860168457" y="0" type="line"/>
			<point x="121.7788696289" y="96.9990234375" type="line"/>
			<point x="371.0010375977" y="122.9990234375" type="line"/>
			<point x="467.953918457" y="593.4156494141" type="line"/>
			<point x="368.5314331055" y="956.8932495117" type="line"/>
			<point x="235.0994873047" y="1358.0009765625" type="line"/>
			<point x="77.4334106445" y="1392.0009765625" type="line"/>
			<point x="70.7321166992" y="1500" type="line"/>
			<point x="567.885925293" y="1500" type="line"/>
			<point x="574.5872192383" y="1381.0009765625" type="line"/>
			<point x="390.3366699219" y="1362.0009765625" type="line"/>
			<point x="478.584777832" y="1078.6610717773" type="line"/>
			<point x="579.1512451172" y="743.3577270508" type="line"/>
			<point x="591.1512451172" y="743.3577270508" type="line"/>
			<point x="764.8071899414" y="1043.9130249023" type="line"/>
			<point x="982.6862792969" y="1366.0009765625" type="line"/>
			<point x="814.1646118164" y="1400.0009765625" type="line"/>
			<point x="835.4633178711" y="1500" type="line"/>
			<point x="1311.9163818359" y="1500" type="line"/>
			<point x="1281.6176757812" y="1387.0009765625" type="line"/>
			<point x="1085.7116088867" y="1353.0009765625" type="line"/>
			<point x="875.7235717773" y="1030.0276489258" type="line"/>
			<point x="609.8909301758" y="604.331237793" type="line"/>
			<point x="513.7478637695" y="122.9990234375" type="line"/>
			<point x="751.6439208984" y="97.9990234375" type="line"/>
			<point x="745.7252197266" y="0" type="line"/>
		</contour>
	</outline>
	<anchor name="bottom" x="443" y="0"/>
	<anchor name="top" x="731" y="1500"/>
	<anchor name="tonos" x="-13" y="1500"/>
	<anchor name="center" x="553" y="579"/>
</glyph>
<glyph name="a" format="2">
	<unicode hex="0061"/>
	<advance width="1071"/>
	<outline>
		<contour>
			<point x="10.0917676843" y="355" type="qcurve" smooth="yes"/>
			<point x="-9.75167714" y="581.716796875"/>
			<point x="458.6296094811" y="981.5522460938"/>
			<point x="529.0278638757" y="981.5522460938" type="qcurve" smooth="yes"/>
			<point x="631.9541944421" y="981.5522460938"/>
			<point x="739.9620679772" y="923.5522460938"/>
			<point x="769.201814071" y="896.5522460938" type="qcurve"/>
			<point x="771.6769727624" y="1002.5522460938" type="line"/>
			<point x="818.4783643639" y="1002.5522460938" type="line"/>
			<point x="909.6434644616" y="808.5522460938" type="line"/>
			<point x="810.9520582116" y="415" type="line"/>
			<point x="773.1878370202" y="225" type="line"/>
			<point x="790.2375196374" y="173"/>
			<point x="828.8464673913" y="90"/>
			<point x="857.989716903" y="46" type="qcurve"/>
			<point x="664.5829786218" y="-18" type="line"/>
			<point x="643.9928907311" y="21.6447143555"/>
			<point x="611.0484937585" y="165.7030639648"/>
			<point x="614.5180372155" y="236.1328735352" type="qcurve"/>
			<point x="494.9485792077" y="110.3016967773"/>
			<point x="311.0091260827" y="-10"/>
			<point x="232.406892196" y="-10" type="qcurve" smooth="yes"/>
			<point x="105.5713209069" y="-10"/>
			<point x="17.3811963952" y="163"/>
		</contour>
		<contour>
			<point x="172.8197339929" y="308.3026123047" type="qcurve" smooth="yes"/>
			<point x="176.86941661" y="223.2838134766"/>
			<point x="237.5141309655" y="135.7747192383"/>
			<point x="302.3327344811" y="135.7747192383" type="qcurve" smooth="yes"/>
			<point x="416.2096876061" y="135.7747192383"/>
			<point x="658.8838209069" y="384"/>
			<point x="691.4881910241" y="531" type="qcurve" smooth="yes"/>
			<point x="769.9339307702" y="851.7775268555" type="line"/>
			<point x="751.4792798913" y="868.7775268555"/>
			<point x="638.456513778" y="879.1550292969"/>
			<point x="590.1422437585" y="879.1550292969" type="qcurve" smooth="yes"/>
			<point x="397.5870679772" y="879.1550292969"/>
			<point x="159.8607496179" y="488.716796875"/>
		</contour>
	</outline>
	<anchor name="bottom" x="345" y="0"/>
	<anchor name="ogonek" x="732" y="0"/>
	<anchor name="top" x="608" y="1000"/>
</glyph>
<glyph name="b" format="2">
	<unicode hex="0062"/>
	<advance width="1054"/>
	<outline>
		<contour>
			<point x="74.9138793945" y="416" type="qcurve" smooth="yes"/>
			<point x="118.9138793945" y="644" type="line"/>
			<point x="293.307800293" y="1442.7109375" type="line"/>
			<point x="115.2755737305" y="1492.7109375" type="line"/>
			<point x="143.2361450195" y="1566.7138671875" type="line"/>
			<point x="344.5443725586" y="1634.7138671875" type="line"/>
			<point x="442.5443725586" y="1525.7138671875" type="line"/>
			<point x="226.1898803711" y="602" type="line"/>
			<point x="138.7938842773" y="144.9257202148" type="line" smooth="yes"/>
			<point x="124.7938842773" y="70.7559204102"/>
			<point x="186.0833129883" y="10.9257202148"/>
			<point x="249.3727416992" y="10.9257202148" type="qcurve" smooth="yes"/>
			<point x="456.5067749023" y="10.9257202148"/>
			<point x="800.0942382812" y="357.5891113281"/>
			<point x="784.7054443359" y="631.5130004883" type="qcurve" smooth="yes"/>
			<point x="778.2259521484" y="737.2106933594"/>
			<point x="710.3805541992" y="847.7009887695"/>
			<point x="629.0824584961" y="847.7009887695" type="qcurve" smooth="yes"/>
			<point x="514.4700927734" y="847.7009887695"/>
			<point x="250.1594848633" y="675.0882568359"/>
			<point x="154.3565673828" y="580.8053588867" type="qcurve"/>
			<point x="107.7340698242" y="648.3532714844" type="line"/>
			<point x="179.2067260742" y="744.4758300781"/>
			<point x="571.0457763672" y="1023.00390625"/>
			<point x="676.8497314453" y="1023.00390625" type="qcurve" smooth="yes"/>
			<point x="784.0139160156" y="1023.00390625"/>
			<point x="921.8940429688" y="860.00390625"/>
			<point x="932.8281860352" y="700.00390625" type="qcurve" smooth="yes"/>
			<point x="953.0765991211" y="326.00390625"/>
			<point x="539.3991088867" y="-19"/>
			<point x="337.4927978516" y="-19" type="qcurve" smooth="yes"/>
			<point x="138.641784668" y="-19"/>
			<point x="36.9138793945" y="222"/>
		</contour>
	</outline>
	<anchor name="bottom" x="571" y="0"/>
	<anchor name="top" x="571" y="1533"/>
</glyph>
<glyph name="c" format="2">
	<unicode hex="0063"/>
	<advance width="939"/>
	<outline>
		<contour>
			<point x="14.119140625" y="526.001953125" type="qcurve" smooth="yes"/>
			<point x="43.357421875" y="766.3837890625"/>
			<point x="442.3450927734" y="1021.9375"/>
			<point x="571.0908813477" y="1021.9375" type="qcurve" smooth="yes"/>
			<point x="702.1068725586" y="1021.9375"/>
			<point x="875.7286987305" y="908.1546020508"/>
			<point x="875.7286987305" y="816.7203979492" type="qcurve" smooth="yes"/>
			<point x="875.7286987305" y="740.0220947266"/>
			<point x="795.3962402344" y="642.3613891602"/>
			<point x="739.670715332" y="615.3613891602" type="qcurve"/>
			<point x="688.4645385742" y="670.3613891602" type="line"/>
			<point x="681.4663696289" y="840.0975952148" type="line" smooth="yes"/>
			<point x="680.8814697266" y="867.0975952148"/>
			<point x="656.2740478516" y="878.4841918945"/>
			<point x="570.4304199219" y="878.4841918945" type="qcurve" smooth="yes"/>
			<point x="413.4535522461" y="878.4841918945"/>
			<point x="196.6292724609" y="645.193359375"/>
			<point x="174.8876953125" y="461.5971679688" type="qcurve" smooth="yes"/>
			<point x="155.83984375" y="308.7626953125"/>
			<point x="234.7285766602" y="144.9348144531"/>
			<point x="338.9298706055" y="137.9348144531" type="qcurve" smooth="yes"/>
			<point x="513.795715332" y="130.9348144531"/>
			<point x="749.6510009766" y="280.8869018555"/>
			<point x="760.2845458984" y="348.56640625" type="qcurve"/>
			<point x="833.4906005859" y="280" type="line"/>
			<point x="833.4906005859" y="231" type="line"/>
			<point x="760.4896240234" y="106.7734985352"/>
			<point x="528.0521850586" y="-23.93359375"/>
			<point x="320.9727783203" y="-16.93359375" type="qcurve" smooth="yes"/>
			<point x="170.3467407227" y="-7.93359375"/>
			<point x="-19.7143554688" y="254.8344726562"/>
		</contour>
	</outline>
	<anchor name="bottom" x="343" y="0"/>
	<anchor name="top" x="600" y="1000"/>
</glyph>
<glyph name="d" format="2">
	<unicode hex="0064"/>
	<advance width="1097"/>
	<outline>
		<contour>
			<point x="10.109375" y="341.5961914062" type="qcurve" smooth="yes"/>
			<point x="10.109375" y="587.478515625"/>
			<point x="436.1049194336" y="952.3893432617"/>
			<point x="669.6053466797" y="972.5043945312" type="qcurve" smooth="yes"/>
			<point x="792.7954101562" y="972.5043945312" type="line"/>
			<point x="885.5440673828" y="1414.4755859375" type="line"/>
			<point x="740.5848388672" y="1488.4755859375" type="line"/>
			<point x="759.5454101562" y="1561.478515625" type="line"/>
			<point x="980.8444824219" y="1634.478515625" type="line"/>
			<point x="1071.8444824219" y="1525.478515625" type="line"/>
			<point x="818.4899902344" y="469" type="line"/>
			<point x="757.0504150391" y="141.0029296875" type="line"/>
			<point x="947.4827880859" y="126.0029296875" type="line"/>
			<point x="948.5222167969" y="44" type="line"/>
			<point x="704.1784667969" y="-18" type="line"/>
			<point x="629.1784667969" y="94" type="line"/>
			<point x="596.1784667969" y="210" type="line"/>
			<point x="545.2775268555" y="110.380859375"/>
			<point x="266.4922485352" y="-10"/>
			<point x="230.7622680664" y="-10" type="qcurve" smooth="yes"/>
			<point x="100.2025756836" y="-10"/>
			<point x="10.109375" y="160.3100585938"/>
		</contour>
		<contour>
			<point x="170.6419677734" y="321.3511962891" type="qcurve" smooth="yes"/>
			<point x="170.6419677734" y="220.8955688477"/>
			<point x="228.5317993164" y="128.8690185547"/>
			<point x="290.2430419922" y="128.8690185547" type="qcurve" smooth="yes"/>
			<point x="419.1590576172" y="128.8690185547"/>
			<point x="639.5251464844" y="322.0761108398"/>
			<point x="682.5439453125" y="502.6040039062" type="qcurve" smooth="yes"/>
			<point x="777.6820068359" y="874.7863769531" type="line"/>
			<point x="759.8223876953" y="887.7863769531"/>
			<point x="687.5228271484" y="908.7863769531"/>
			<point x="634.6383666992" y="908.7863769531" type="qcurve" smooth="yes"/>
			<point x="428.3080444336" y="908.7863769531"/>
			<point x="170.6419677734" y="508.5537109375"/>
		</contour>
	</outline>
	<anchor name="bottom" x="604" y="0"/>
	<anchor name="center" x="876" y="1202"/>
	<anchor name="top" x="704" y="1534"/>
	<anchor name="topright" x="1076" y="1000"/>
	<anchor name="liga" x="1067" y="0"/>
</glyph>
<glyph name="e" format="2">
	<unicode hex="0065"/>
	<advance width="1037"/>
	<outline>
		<contour>
			<point x="10.4473266602" y="493.478515625" type="qcurve" smooth="yes"/>
			<point x="59.8760375977" y="749.431640625"/>
			<point x="432.1873779297" y="1037.623046875"/>
			<point x="550.5950317383" y="1037.623046875" type="qcurve" smooth="yes"/>
			<point x="725.943359375" y="1037.623046875"/>
			<point x="963.021484375" y="840.391418457"/>
			<point x="954.5109863281" y="692.0740356445" type="qcurve" smooth="yes"/>
			<point x="931.606262207" y="668.8270874023"/>
			<point x="922.7083129883" y="626.4500732422"/>
			<point x="919.8921508789" y="611.478515625" type="qcurve"/>
			<point x="945.2969360352" y="597.478515625" type="line"/>
			<point x="927.7017211914" y="498.5263671875" type="line"/>
			<point x="991.1948242188" y="504.5263671875"/>
			<point x="743.8030395508" y="507.219909668"/>
			<point x="771.8163452148" y="508.5263671875" type="qcurve" smooth="yes"/>
			<point x="173.7008666992" y="506.5263671875" type="line"/>
			<point x="164.8912963867" y="600.5261230469" type="line"/>
			<point x="670.4438476562" y="605.478515625" type="line"/>
			<point x="676.3340454102" y="630.7568359375"/>
			<point x="693.5326538086" y="730.4085693359"/>
			<point x="687.9826660156" y="783.0836181641" type="qcurve" smooth="yes"/>
			<point x="682.313293457" y="852.9020996094"/>
			<point x="613.1079711914" y="942.6551513672"/>
			<point x="570.8614501953" y="942.6551513672" type="qcurve" smooth="yes"/>
			<point x="433.8045043945" y="942.6551513672"/>
			<point x="213.5114135742" y="718.9317626953"/>
			<point x="170.1620483398" y="495.478515625" type="qcurve" smooth="yes"/>
			<point x="134.7251586914" y="309.4130859375"/>
			<point x="310.9678344727" y="66.3054199219"/>
			<point x="379.1810913086" y="75.7297363281" type="qcurve" smooth="yes"/>
			<point x="603.4612426758" y="74.8371582031"/>
			<point x="796.2150268555" y="232.7943115234"/>
			<point x="814.2268066406" y="323.6058349609" type="qcurve"/>
			<point x="869.8843383789" y="277" type="line"/>
			<point x="865.8346557617" y="229" type="line"/>
			<point x="790.2764892578" y="107.7134399414"/>
			<point x="535.3870849609" y="-29.1721801758"/>
			<point x="282.5629882812" y="-33" type="qcurve" smooth="yes"/>
			<point x="243.7787475586" y="-45.3533325195"/>
			<point x="-33.8148803711" y="260.7626953125"/>
		</contour>
	</outline>
	<anchor name="bottom" x="339" y="0"/>
	<anchor name="ogonek" x="495" y="0"/>
	<anchor name="top" x="601" y="1000"/>
</glyph>
<glyph name="f" format="2">
	<unicode hex="0066"/>
	<advance width="614"/>
	<outline>
		<contour>
			<point x="-349.3212890625" y="-426.7836914062" type="line" smooth="yes"/>
			<point x="-327.415222168" y="-379.7836914062" type="line"/>
			<point x="-201.7474975586" y="-379.7836914062" type="line" smooth="yes"/>
			<point x="-85.7474975586" y="-380.1701660156"/>
			<point x="25.0914306641" y="-221.8952636719"/>
			<point x="77.2048339844" y="56.720703125" type="qcurve" smooth="yes"/>
			<point x="217.4426269531" y="805.00390625" type="line"/>
			<point x="220.4426269531" y="842.00390625" type="line"/>
			<point x="270.0861816406" y="1110.4189453125" type="line" smooth="yes"/>
			<point x="317.4909667969" y="1390.0141601562"/>
			<point x="490.9293212891" y="1611.4189453125"/>
			<point x="567.1134033203" y="1611.4189453125" type="qcurve" smooth="yes"/>
			<point x="680.8978271484" y="1611.4189453125"/>
			<point x="782.2103881836" y="1540.6639404297"/>
			<point x="782.2103881836" y="1475.0599365234" type="qcurve" smooth="yes"/>
			<point x="782.2103881836" y="1424.889831543"/>
			<point x="728.2236328125" y="1366.6442260742"/>
			<point x="714.0861816406" y="1366.6442260742" type="qcurve" smooth="yes"/>
			<point x="667.6516113281" y="1366.6442260742"/>
			<point x="617.0861816406" y="1404.6442260742"/>
			<point x="601.0861816406" y="1436.6442260742" type="qcurve" smooth="yes"/>
			<point x="583.0861816406" y="1472.6442260742"/>
			<point x="567.7843017578" y="1522.0972290039"/>
			<point x="551.3781738281" y="1522.0972290039" type="qcurve" smooth="yes"/>
			<point x="515.9278564453" y="1522.0972290039"/>
			<point x="486.3961791992" y="1468.4744262695"/>
			<point x="469.0987548828" y="1375.6442260742" type="qcurve" smooth="yes"/>
			<point x="370.4379882812" y="836.00390625" type="line"/>
			<point x="384.4379882812" y="813.00390625" type="line"/>
			<point x="225.080078125" y="82" type="line" smooth="yes"/>
			<point x="161.2308349609" y="-207.1968994141"/>
			<point x="27.6156005859" y="-477.7836914062"/>
			<point x="-111.6535644531" y="-477.7836914062" type="qcurve"/>
		</contour>
		<contour>
			<point x="30.0161132812" y="848.9083862305" type="line"/>
			<point x="35.8651123047" y="893.00390625" type="line"/>
			<point x="249.4426269531" y="935.00390625" type="line"/>
			<point x="618.1479492188" y="925.00390625" type="line"/>
			<point x="605.0912475586" y="862.9083862305" type="line"/>
			<point x="297.1982421875" y="839.9083862305" type="line"/>
			<point x="287.8386230469" y="831.9083862305" type="line"/>
		</contour>
	</outline>
	<anchor name="bottom" x="217" y="0"/>
	<anchor name="top" x="554" y="1536"/>
</glyph>
<glyph name="g" format="2">
	<unicode hex="0067"/>
	<advance width="1051"/>
	<outline>
		<contour>
			<point x="0.109375" y="333" type="qcurve" smooth="yes"/>
			<point x="-21.7589111328" y="575.5024414062"/>
			<point x="425.5744018555" y="977.576171875"/>
			<point x="530.956237793" y="977.576171875" type="qcurve" smooth="yes"/>
			<point x="671.0307617188" y="977.576171875"/>
			<point x="671.7097167969" y="917.576171875"/>
			<point x="704.7345581055" y="877.576171875" type="qcurve"/>
			<point x="701.7173461914" y="1000.576171875" type="line"/>
			<point x="825.7173461914" y="1000.576171875" type="line"/>
			<point x="912.0564575195" y="769.576171875" type="line"/>
			<point x="829.2698364258" y="470" type="line" smooth="yes"/>
			<point x="789.0794067383" y="314"/>
			<point x="754.3580322266" y="132.4772949219"/>
			<point x="701.9622192383" y="-17.5380859375" type="qcurve" smooth="yes"/>
			<point x="605.6173095703" y="-290.1223144531"/>
			<point x="278.4544677734" y="-477.0451660156"/>
			<point x="211.2421875" y="-477.0451660156" type="qcurve"/>
			<point x="-50.9496459961" y="-423.0451660156" type="line"/>
			<point x="-33.5093383789" y="-368.0435180664" type="line"/>
			<point x="117.6937255859" y="-368.0435180664" type="line" smooth="yes"/>
			<point x="369.0498046875" y="-366.5151977539"/>
			<point x="504.3832397461" y="-138.1149902344"/>
			<point x="545.8030395508" y="45.4619140625" type="qcurve" smooth="yes"/>
			<point x="594.3752441406" y="254.91796875" type="line"/>
			<point x="499.7070922852" y="140.5291748047"/>
			<point x="263.7893066406" y="-7"/>
			<point x="231.0615234375" y="-7" type="qcurve" smooth="yes"/>
			<point x="113.0535888672" y="-7"/>
			<point x="8.2087402344" y="160"/>
		</contour>
		<contour>
			<point x="156.9226074219" y="360" type="qcurve" smooth="yes"/>
			<point x="162.5921630859" y="279"/>
			<point x="214.3929443359" y="170.1137084961"/>
			<point x="290.9718017578" y="170.1137084961" type="qcurve" smooth="yes"/>
			<point x="402.8239135742" y="170.1137084961"/>
			<point x="643.0826416016" y="380"/>
			<point x="685.6776733398" y="548" type="qcurve" smooth="yes"/>
			<point x="761.9357910156" y="836.5185546875" type="line"/>
			<point x="752.3508911133" y="859.3284912109"/>
			<point x="678.0279541016" y="890.5185546875"/>
			<point x="613.3087158203" y="890.5185546875" type="qcurve" smooth="yes"/>
			<point x="434.7811279297" y="890.5185546875"/>
			<point x="139.508972168" y="502.4545898438"/>
		</contour>
	</outline>
	<anchor name="bottom" x="324" y="-416"/>
	<anchor name="top" x="603" y="1000"/>
</glyph>
<glyph name="h" format="2">
	<unicode hex="0068"/>
	<advance width="1127"/>
	<outline>
		<contour>
			<point x="-1.5205688477" y="-9" type="line"/>
			<point x="-34.5205688477" y="85" type="line"/>
			<point x="113.4794311523" y="584" type="line"/>
			<point x="305.7556762695" y="1449.0048828125" type="line"/>
			<point x="139.723449707" y="1514.0048828125" type="line"/>
			<point x="167.6840209961" y="1590.0078125" type="line"/>
			<point x="369.5294799805" y="1661.0078125" type="line"/>
			<point x="471.3881225586" y="1547.0078125" type="line"/>
			<point x="275.2926635742" y="655" type="line"/>
			<point x="166.2926635742" y="212" type="line"/>
			<point x="234.2926635742" y="52" type="line"/>
		</contour>
		<contour>
			<point x="683.5708618164" y="-17" type="line"/>
			<point x="608.5708618164" y="107" type="line"/>
			<point x="780.5323486328" y="769.9770507812" type="line" smooth="yes"/>
			<point x="799.9302368164" y="845.2414550781"/>
			<point x="755.8675537109" y="932.3986816406"/>
			<point x="659.2647705078" y="932.3986816406" type="qcurve" smooth="yes"/>
			<point x="562.541015625" y="932.3986816406"/>
			<point x="334.6677246094" y="723.7965087891"/>
			<point x="242.197265625" y="605.3986816406" type="qcurve"/>
			<point x="199.2416381836" y="661.00390625" type="line"/>
			<point x="296.8900756836" y="821.5535888672"/>
			<point x="616.1493530273" y="1020.00390625"/>
			<point x="714.6857299805" y="1020.00390625" type="qcurve" smooth="yes"/>
			<point x="844.2196655273" y="1020.00390625"/>
			<point x="975.4741821289" y="838.0308837891"/>
			<point x="934.1026000977" y="698.4930419922" type="qcurve" smooth="yes"/>
			<point x="787.8372192383" y="148.0029296875" type="line"/>
			<point x="963.8694458008" y="132.0029296875" type="line"/>
			<point x="966.9088745117" y="43" type="line"/>
		</contour>
	</outline>
	<anchor name="bottom" x="420" y="0"/>
	<anchor name="center" x="347" y="1202"/>
	<anchor name="top" x="424" y="1534"/>
</glyph>
<glyph name="k" format="2">
	<unicode hex="006B"/>
	<advance width="1007"/>
	<outline>
		<contour>
			<point x="500.1995849609" y="455.2963867188" type="line"/>
			<point x="177.2949829102" y="237.8955078125" type="line"/>
			<point x="122.8469848633" y="296.7294311523" type="line"/>
			<point x="635.6207275391" y="672.3822021484" type="line"/>
			<point x="646.6019897461" y="760.754699707"/>
			<point x="598.5052490234" y="862.3904418945"/>
			<point x="534.6444702148" y="862.3904418945" type="qcurve" smooth="yes"/>
			<point x="482.1922607422" y="862.3904418945"/>
			<point x="322.4750366211" y="680.6270141602"/>
			<point x="275.4778442383" y="613.3376464844" type="qcurve"/>
			<point x="279.119934082" y="651.3337402344" type="line"/>
			<point x="179.9135131836" y="217" type="line"/>
			<point x="244.9135131836" y="50" type="line"/>
			<point x="0.4794311523" y="-8" type="line"/>
			<point x="-34.5205688477" y="84" type="line"/>
			<point x="116.4794311523" y="587" type="line"/>
			<point x="305.2849731445" y="1449.8355712891" type="line"/>
			<point x="136.7556762695" y="1517.8355712891" type="line"/>
			<point x="164.7162475586" y="1591.478515625" type="line"/>
			<point x="381.1503295898" y="1660.478515625" type="line"/>
			<point x="483.1503295898" y="1547.478515625" type="line"/>
			<point x="299.8997192383" y="729.7984619141" type="line"/>
			<point x="360.6377563477" y="829.0829467773"/>
			<point x="577.4298706055" y="1005.1374511719"/>
			<point x="666.470703125" y="1005.1374511719" type="qcurve" smooth="yes"/>
			<point x="725.4048461914" y="1005.1374511719"/>
			<point x="854.9708251953" y="887.5354003906"/>
			<point x="862.0354614258" y="845.7833862305" type="qcurve" smooth="yes"/>
			<point x="870.0473022461" y="740.5798950195" type="line"/>
			<point x="814.0631713867" y="696.1354370117" type="line"/>
			<point x="469.2662963867" y="465.9702148438" type="line"/>
		</contour>
		<contour>
			<point x="562.3010864258" y="556.7448120117" type="line"/>
			<point x="718.7077026367" y="147.0029296875" type="line"/>
			<point x="830.8217163086" y="135.0029296875" type="line"/>
			<point x="819.8217163086" y="41" type="line"/>
			<point x="712.1038818359" y="-15" type="line" smooth="yes"/>
			<point x="670.2653808594" y="-22.7347412109"/>
			<point x="639.9113769531" y="11"/>
			<point x="594.3396606445" y="89" type="qcurve" smooth="yes"/>
			<point x="422.8085327148" y="455.9722290039" type="line"/>
		</contour>
	</outline>
	<anchor name="bottom" x="448" y="0"/>
	<anchor name="top" x="578" y="1534"/>
</glyph>
<glyph name="m" format="2">
	<unicode hex="006D"/>
	<advance width="1701"/>
	<outline>
		<contour>
			<point x="31.0017089844" y="-8" type="line"/>
			<point x="-4.9982910156" y="89" type="line"/>
			<point x="134.1921386719" y="552.5952148438" type="line"/>
			<point x="188.3990478516" y="821.0009765625" type="line"/>
			<point x="48.3668212891" y="821.0009765625" type="line"/>
			<point x="57.3273925781" y="942.00390625" type="line"/>
			<point x="107.8773193359" y="998.00390625" type="line"/>
			<point x="283.8773193359" y="998.00390625" type="line"/>
			<point x="307.0029296875" y="692.9304199219" type="line"/>
			<point x="321.7098388672" y="687.5952148438" type="line"/>
			<point x="201.5194091797" y="207" type="line"/>
			<point x="268.5194091797" y="46" type="line"/>
		</contour>
		<contour>
			<point x="700.787109375" y="-21" type="line"/>
			<point x="624.787109375" y="108" type="line"/>
			<point x="779.6276855469" y="704.9949951172" type="line" smooth="yes"/>
			<point x="799.9104003906" y="779.9006347656"/>
			<point x="735.7375488281" y="870.9949951172"/>
			<point x="656.2609863281" y="870.9949951172" type="qcurve" smooth="yes"/>
			<point x="564.7739257812" y="870.9949951172"/>
			<point x="343.2772216797" y="691.5262451172"/>
			<point x="220.3720703125" y="523.4616699219" type="qcurve"/>
			<point x="230.7639160156" y="638.7770996094" type="line"/>
			<point x="229.4158935547" y="707.8742675781"/>
			<point x="602.2504882812" y="1006.1374511719"/>
			<point x="712.1156005859" y="1006.1374511719" type="qcurve" smooth="yes"/>
			<point x="844.7713623047" y="1006.1374511719"/>
			<point x="962.1791992188" y="782.4771728516"/>
			<point x="906.1672363281" y="613.4295654297" type="qcurve" smooth="yes"/>
			<point x="806.5705566406" y="210" type="line"/>
			<point x="890.5705566406" y="48" type="line"/>
		</contour>
		<contour>
			<point x="1279.4036865234" y="-15" type="line"/>
			<point x="1204.4036865234" y="105" type="line"/>
			<point x="1361.2442626953" y="704.9949951172" type="line" smooth="yes"/>
			<point x="1381.5269775391" y="779.9006347656"/>
			<point x="1319.7834472656" y="870.9949951172"/>
			<point x="1240.3068847656" y="870.9949951172" type="qcurve" smooth="yes"/>
			<point x="1150.1077880859" y="870.9949951172"/>
			<point x="929.7043457031" y="676.3718261719"/>
			<point x="807.8292236328" y="510.4967041016" type="qcurve"/>
			<point x="812.8121337891" y="632.1225585938" type="line"/>
			<point x="817.4512939453" y="691.7049560547"/>
			<point x="1204.0084228516" y="1006.1374511719"/>
			<point x="1306.3104248047" y="1006.1374511719" type="qcurve" smooth="yes"/>
			<point x="1432.1224365234" y="1006.1374511719"/>
			<point x="1552.2230224609" y="819.9388427734"/>
			<point x="1508.9808349609" y="697.3459472656" type="qcurve" smooth="yes"/>
			<point x="1364.5417480469" y="148.0029296875" type="line"/>
			<point x="1538.5739746094" y="132.0029296875" type="line"/>
			<point x="1541.6134033203" y="43" type="line"/>
		</contour>
	</outline>
	<anchor name="bottom" x="958" y="0"/>
	<anchor name="top" x="958" y="1000"/>
	<anchor name="cy_descender" x="1572" y="134"/>
</glyph>
<glyph name="n" format="2">
	<unicode hex="006E"/>
	<advance width="1136"/>
	<outline>
		<contour>
			<point x="38.6866455078" y="-34.6162109375" type="line"/>
			<point x="-9.4200439453" y="8.2944335938" type="line"/>
			<point x="133.0017089844" y="552" type="line"/>
			<point x="193.5017089844" y="844.4396972656" type="line"/>
			<point x="53.4694824219" y="844.4396972656" type="line"/>
			<point x="61.8348388672" y="965.4426269531" type="line"/>
			<point x="288.1751708984" y="993.7106933594" type="line"/>
			<point x="277.3698730469" y="993.7106933594" type="line"/>
			<point x="319.8336181641" y="738.8635253906" type="line"/>
			<point x="332.0119628906" y="743" type="line"/>
			<point x="184.4768066406" y="130.2944335938" type="line"/>
			<point x="244.6522216797" y="32.3986816406" type="line"/>
		</contour>
		<contour>
			<point x="704.7791748047" y="-17" type="line"/>
			<point x="634.3714599609" y="79.9553222656" type="line"/>
			<point x="796.4825439453" y="730.8210449219" type="line" smooth="yes"/>
			<point x="817.5382080078" y="810.3444824219"/>
			<point x="769.6530761719" y="914.1510009766"/>
			<point x="667.5556640625" y="914.1510009766" type="qcurve" smooth="yes"/>
			<point x="566.4979248047" y="914.1510009766"/>
			<point x="313.7084960938" y="651.6234130859"/>
			<point x="254.501953125" y="540.5660400391" type="qcurve"/>
			<point x="210.8435058594" y="619.1046142578" type="line"/>
			<point x="291.8028564453" y="777.5706787109"/>
			<point x="596.7094726562" y="1006.1374511719"/>
			<point x="725.3218994141" y="1006.1374511719" type="qcurve" smooth="yes"/>
			<point x="853.0184326172" y="1006.1374511719"/>
			<point x="988.1284179688" y="858.1322021484"/>
			<point x="951.5513916016" y="733.4055175781" type="qcurve" smooth="yes"/>
			<point x="804.7214355469" y="148.0029296875" type="line"/>
			<point x="979.7536621094" y="132.0029296875" type="line"/>
			<point x="982.7930908203" y="43" type="line"/>
		</contour>
	</outline>
	<anchor name="bottom" x="522" y="0"/>
	<anchor name="top" x="602" y="1000"/>
	<anchor name="liga" x="1173" y="0"/>
</glyph>
<glyph name="o" format="2">
	<unicode hex="006F"/>
	<advance width="1072"/>
	<outline>
		<contour>
			<point x="23.4172814171" y="598.99609375" type="qcurve" smooth="yes"/>
			<point x="85.2946617882" y="786.8320922852"/>
			<point x="391.6416015625" y="1018.2876586914"/>
			<point x="599.8851158898" y="998.0878295898" type="qcurve" smooth="yes"/>
			<point x="797.6135253906" y="976.9124755859"/>
			<point x="996.5438842773" y="652.7214355469"/>
			<point x="921.1623535156" y="420.4374389648" type="qcurve" smooth="yes"/>
			<point x="861.1864624023" y="233.5204467773"/>
			<point x="555.1653442383" y="-23.5057983398"/>
			<point x="325.6888878625" y="0.0812988281" type="qcurve" smooth="yes"/>
			<point x="158.5557861328" y="16.2348022461"/>
			<point x="-51.161270829" y="358.655456543"/>
		</contour>
		<contour>
			<point x="174.8684532921" y="535.9909057617" type="qcurve" smooth="yes"/>
			<point x="138.3978986294" y="335.4547063931"/>
			<point x="240.335982589" y="95.8558959961"/>
			<point x="373.2127526085" y="87.8369140625" type="qcurve" smooth="yes"/>
			<point x="514.3990061822" y="85.6654691245"/>
			<point x="714.2835533898" y="281.9566040039"/>
			<point x="747.1030724328" y="483.1923828125" type="qcurve" smooth="yes"/>
			<point x="780.8678429406" y="677.7221069336"/>
			<point x="659.757652239" y="891.26527428"/>
			<point x="527.3662560265" y="898.3931884766" type="qcurve" smooth="yes"/>
			<point x="384.6539147179" y="905.844909668"/>
			<point x="205.1871660959" y="713.0477785796"/>
		</contour>
	</outline>
	<anchor name="bottom" x="358" y="0"/>
	<anchor name="center" x="461" y="500"/>
	<anchor name="ogonek" x="514" y="0"/>
	<anchor name="top" x="584" y="1000"/>
	<anchor name="topright" x="663" y="1000"/>
	<anchor name="GRKtop" x="584" y="1000"/>
	<anchor name="yu_dash" x="83" y="498"/>
</glyph>
<glyph name="p" format="2">
	<unicode hex="0070"/>
	<advance width="1012"/>
	<outline>
		<contour>
			<point x="-124.421875" y="-393.0144042969" type="line"/>
			<point x="117.3933105469" y="548" type="line"/>
			<point x="161.3464355469" y="764.7895507812" type="line"/>
			<point x="122.3464355469" y="907.7895507812" type="line"/>
			<point x="70.2283935547" y="1032.7895507812" type="line"/>
			<point x="202.2283935547" y="1032.7895507812" type="line"/>
			<point x="236.0313720703" y="751.7895507812" type="line"/>
			<point x="282.4392700195" y="842.3657226562"/>
			<point x="563.0238647461" y="1009.9230957031"/>
			<point x="636.0052490234" y="1009.9230957031" type="qcurve" smooth="yes"/>
			<point x="773.3417358398" y="1009.9230957031"/>
			<point x="895.4373779297" y="892.3418579102"/>
			<point x="903.1317749023" y="764.0582885742" type="qcurve" smooth="yes"/>
			<point x="922.1652832031" y="399.048828125"/>
			<point x="435.0158081055" y="8"/>
			<point x="239.2354736328" y="8" type="qcurve" smooth="yes"/>
			<point x="189.8155517578" y="8"/>
			<point x="149.3249511719" y="17"/>
			<point x="122.2752685547" y="27" type="qcurve"/>
			<point x="38.8421630859" y="-385.0114746094" type="line"/>
			<point x="184.8743896484" y="-417.0114746094" type="line"/>
			<point x="162.4923095703" y="-484.0144042969" type="line"/>
			<point x="23.578125" y="-518.0144042969" type="line"/>
		</contour>
		<contour>
			<point x="163.9356689453" y="199.7171020508" type="line"/>
			<point x="160.8413696289" y="157.1701049805"/>
			<point x="188.74609375" y="124.0570068359"/>
			<point x="237.0852050781" y="124.0570068359" type="qcurve" smooth="yes"/>
			<point x="444.5452270508" y="124.0570068359"/>
			<point x="744.0330810547" y="476.9439086914"/>
			<point x="724.1896362305" y="735.5479736328" type="qcurve" smooth="yes"/>
			<point x="718.1151123047" y="778.5250244141"/>
			<point x="659.9522094727" y="837.3748779297"/>
			<point x="587.7521972656" y="837.3748779297" type="qcurve" smooth="yes"/>
			<point x="516.2888793945" y="837.3748779297"/>
			<point x="353.6740722656" y="744.9963378906"/>
			<point x="282.3414916992" y="671.864440918" type="qcurve"/>
			<point x="219.9356689453" y="459.4718017578" type="line"/>
		</contour>
	</outline>
	<anchor name="bottom" x="599" y="0"/>
	<anchor name="top" x="599" y="1000"/>
</glyph>
<glyph name="q" format="2">
	<unicode hex="0071"/>
	<advance width="1048"/>
	<outline>
		<contour>
			<point x="14.109375" y="341" type="qcurve" smooth="yes"/>
			<point x="14.109375" y="554.2641601562"/>
			<point x="431.1660569316" y="989.576171875"/>
			<point x="443.8143723613" y="989.576171875" type="qcurve" smooth="yes"/>
			<point x="535.9795945293" y="989.576171875"/>
			<point x="666.7398484355" y="936.576171875"/>
			<point x="703.5249436504" y="893.576171875" type="qcurve"/>
			<point x="647.8050339824" y="1001.576171875" type="line"/>
			<point x="791.8050339824" y="1001.576171875" type="line"/>
			<point x="902.8050339824" y="791.576171875" type="line"/>
			<point x="818.6136277324" y="506" type="line"/>
			<point x="606.7560837871" y="-383.0114746094" type="line"/>
			<point x="780.6681931621" y="-415.0114746094" type="line"/>
			<point x="755.6460984355" y="-478.0144042969" type="line"/>
			<point x="590.5440476543" y="-505.0144042969" type="line"/>
			<point x="468.5440476543" y="-392.0144042969" type="line"/>
			<point x="609.5438035137" y="141" type="line"/>
			<point x="584.5438035137" y="149" type="line"/>
			<point x="499.5928757793" y="57"/>
			<point x="298.2399291992" y="-22"/>
			<point x="253.4624633789" y="-22" type="qcurve" smooth="yes"/>
			<point x="171.0255737305" y="-22"/>
			<point x="14.109375" y="179"/>
		</contour>
		<contour>
			<point x="157.4151611328" y="294" type="qcurve" smooth="yes"/>
			<point x="157.4151611328" y="229"/>
			<point x="202.874797166" y="130.4909057617"/>
			<point x="283.4784958965" y="130.4909057617" type="qcurve" smooth="yes"/>
			<point x="394.6858933574" y="130.4909057617"/>
			<point x="633.1706345683" y="383"/>
			<point x="676.740824998" y="547" type="qcurve" smooth="yes"/>
			<point x="769.4037278301" y="869.5185546875" type="line"/>
			<point x="755.579081834" y="892.1034545898"/>
			<point x="688.1902878887" y="922.5185546875"/>
			<point x="630.7107957012" y="922.5185546875" type="qcurve" smooth="yes"/>
			<point x="455.3979294902" y="922.5185546875"/>
			<point x="157.4151611328" y="417.2641601562"/>
		</contour>
	</outline>
	<anchor name="bottom" x="594" y="0"/>
	<anchor name="top" x="594" y="1000"/>
</glyph>
<glyph name="r" format="2">
	<unicode hex="0072"/>
	<advance width="891"/>
	<outline>
		<contour>
			<point x="65.7844848633" y="-17" type="line"/>
			<point x="-4.2155151367" y="88" type="line"/>
			<point x="133.7844848633" y="550" type="line"/>
			<point x="184.3772583008" y="823.5961914062" type="line"/>
			<point x="25.3450317383" y="821.5961914062" type="line"/>
			<point x="41.7053833008" y="942.5991210938" type="line"/>
			<point x="88.5508422852" y="999.5991210938" type="line"/>
			<point x="250.5508422852" y="999.5991210938" type="line"/>
			<point x="306.5508422852" y="699.5991210938" type="line"/>
			<point x="310.5508422852" y="618.5991210938" type="line"/>
			<point x="188.5582885742" y="150.0029296875" type="line"/>
			<point x="378.9505004883" y="133.0029296875" type="line"/>
			<point x="381.6299438477" y="41" type="line"/>
		</contour>
		<contour>
			<point x="646.8965454102" y="600.258605957" type="line"/>
			<point x="644.2299194336" y="789.3921508789" type="line"/>
			<point x="563.2089233398" y="789.3921508789"/>
			<point x="348.248840332" y="714.258605957"/>
			<point x="225.1892700195" y="585.6389770508" type="qcurve"/>
			<point x="192.1572875977" y="642.8271484375" type="line"/>
			<point x="346.5508422852" y="841.5991210938"/>
			<point x="594.4413452148" y="1000.7326660156"/>
			<point x="682.5991821289" y="999.7326660156" type="qcurve" smooth="yes"/>
			<point x="766.5137329102" y="1000.7326660156"/>
			<point x="862.0214233398" y="878.7326660156"/>
			<point x="862.0214233398" y="770.7326660156" type="qcurve" smooth="yes"/>
			<point x="862.0214233398" y="636.7326660156"/>
			<point x="807.8965454102" y="607.258605957"/>
			<point x="718.8965454102" y="603.258605957" type="qcurve" smooth="yes"/>
		</contour>
	</outline>
	<anchor name="bottom" x="282" y="0"/>
	<anchor name="top" x="486" y="1000"/>
</glyph>
<glyph name="s" format="2">
	<unicode hex="0073"/>
	<advance width="852"/>
	<outline>
		<contour>
			<point x="-29.2600708008" y="224" type="qcurve" smooth="yes"/>
			<point x="-30.2600708008" y="311"/>
			<point x="56.2306518555" y="393"/>
			<point x="89.522277832" y="394" type="qcurve" smooth="yes"/>
			<point x="163.522277832" y="332" type="line"/>
			<point x="165.522277832" y="184.8120117188" type="line" smooth="yes"/>
			<point x="166.522277832" y="137.3969116211"/>
			<point x="158.1765136719" y="109.8593139648"/>
			<point x="313.8110351562" y="109.8593139648" type="qcurve" smooth="yes"/>
			<point x="396.4063720703" y="109.8593139648"/>
			<point x="580.4959106445" y="190.2366943359"/>
			<point x="581.4959106445" y="266.1123657227" type="qcurve" smooth="yes"/>
			<point x="584.4959106445" y="341.9862670898"/>
			<point x="504.1561279297" y="372.7715454102"/>
			<point x="354.6714477539" y="456.5333251953" type="qcurve" smooth="yes"/>
			<point x="219.7416381836" y="523.7235107422"/>
			<point x="77.983581543" y="661.6752929688"/>
			<point x="91.8850708008" y="798.9135742188" type="qcurve" smooth="yes"/>
			<point x="107.7865600586" y="860.8603515625"/>
			<point x="299.295715332" y="1009.9375"/>
			<point x="468.7074584961" y="1009.9375" type="qcurve" smooth="yes"/>
			<point x="590.8212280273" y="1009.9375"/>
			<point x="774.4722290039" y="897.00390625"/>
			<point x="780.4722290039" y="798.00390625" type="qcurve" smooth="yes"/>
			<point x="784.4722290039" y="723.4086914062"/>
			<point x="712.2213745117" y="616.00390625"/>
			<point x="700.8330688477" y="616.00390625" type="qcurve" smooth="yes"/>
			<point x="630.8330688477" y="664.00390625" type="line"/>
			<point x="630.8330688477" y="754.2489013672" type="line" smooth="yes"/>
			<point x="630.8330688477" y="802.3444824219"/>
			<point x="534.1572265625" y="886.9747924805"/>
			<point x="429.0257568359" y="886.9747924805" type="qcurve" smooth="yes"/>
			<point x="288.5954589844" y="886.9747924805"/>
			<point x="251.8472290039" y="826.4367675781"/>
			<point x="251.8472290039" y="776.1428833008" type="qcurve" smooth="yes"/>
			<point x="252.8472290039" y="719.5140380859"/>
			<point x="358.9418334961" y="642.3646240234"/>
			<point x="467.3524780273" y="593.2362060547" type="qcurve" smooth="yes"/>
			<point x="602.217590332" y="529.85546875"/>
			<point x="751.4042358398" y="397.1988525391"/>
			<point x="747.4042358398" y="288.9366455078" type="qcurve"/>
			<point x="744.6365356445" y="156.5477294922"/>
			<point x="438.2079467773" y="-5.93359375"/>
			<point x="280.1693725586" y="-5.93359375" type="qcurve" smooth="yes"/>
			<point x="141.4091186523" y="-5.93359375"/>
			<point x="-27.2600708008" y="114"/>
		</contour>
	</outline>
	<anchor name="bottom" x="282" y="0"/>
	<anchor name="top" x="446" y="1000"/>
</glyph>
<glyph name="t" format="2">
	<unicode hex="0074"/>
	<advance width="598"/>
	<outline>
		<contour>
			<point x="147.8471069336" y="-6" type="line"/>
			<point x="62.8471069336" y="153" type="line"/>
			<point x="159.8471069336" y="513" type="line"/>
			<point x="227.1755981445" y="828.6818847656" type="line"/>
			<point x="74.1755981445" y="840.6818847656" type="line"/>
			<point x="77.6098022461" y="893.00390625" type="line"/>
			<point x="283.358581543" y="931.1505126953"/>
			<point x="385.6211547852" y="1216.6118164062"/>
			<point x="321.4607543945" y="1265.00390625" type="qcurve"/>
			<point x="336.3187866211" y="1265.00390625" type="line"/>
			<point x="395.3187866211" y="1177.00390625" type="line"/>
			<point x="248.4357299805" y="520" type="line"/>
			<point x="162.676574707" y="164.0029296875" type="line"/>
			<point x="393.0228881836" y="152.0029296875" type="line"/>
			<point x="382.3029174805" y="58.5600585938" type="line"/>
		</contour>
		<contour>
			<point x="609.7604980469" y="846.6818847656" type="line"/>
			<point x="644.6098022461" y="923.00390625" type="line"/>
			<point x="574.0728149414" y="927.00390625" type="line"/>
			<point x="574.2235107422" y="876.6818847656" type="line"/>
		</contour>
	</outline>
	<anchor name="bottom" x="149" y="0"/>
	<anchor name="center" x="262" y="622"/>
	<anchor name="top" x="322" y="1179"/>
	<anchor name="topright" x="600" y="920"/>
</glyph>
<glyph name="u" format="2">
	<unicode hex="0075"/>
	<advance width="1127"/>
	<outline>
		<contour>
			<point x="791.7448120117" y="-8" type="line"/>
			<point x="702.7448120117" y="93" type="line"/>
			<point x="683.760559082" y="350.3719482422" type="line"/>
			<point x="802.6979370117" y="818.5991210938" type="line"/>
			<point x="743.6979370117" y="962.5991210938" type="line"/>
			<point x="925.0873413086" y="1012.5991210938" type="line"/>
			<point x="979.0873413086" y="878.5991210938" type="line"/>
			<point x="864.1342163086" y="464" type="line"/>
			<point x="805.8545532227" y="145.0029296875" type="line"/>
			<point x="980.8867797852" y="133.0029296875" type="line"/>
			<point x="986.1664428711" y="43" type="line"/>
		</contour>
		<contour>
			<point x="66.6533813477" y="313" type="qcurve" smooth="yes"/>
			<point x="192.3659057617" y="821.5961914062" type="line"/>
			<point x="35.3336791992" y="821.5961914062" type="line"/>
			<point x="44.5742797852" y="941.5991210938" type="line"/>
			<point x="90.4197387695" y="1000.5991210938" type="line"/>
			<point x="254.4197387695" y="1000.5991210938" type="line"/>
			<point x="362.4197387695" y="866.5991210938" type="line"/>
			<point x="228.2284545898" y="290.3647460938" type="line" smooth="yes"/>
			<point x="205.7363891602" y="197.3647460938"/>
			<point x="268.3635864258" y="125.4600830078"/>
			<point x="353.819152832" y="125.4600830078" type="qcurve" smooth="yes"/>
			<point x="453.0234985352" y="125.4600830078"/>
			<point x="701.3223266602" y="327.2718505859"/>
			<point x="772.6260375977" y="396.4968261719" type="qcurve"/>
			<point x="830.7116088867" y="356.6361083984" type="line"/>
			<point x="788.907409668" y="242.2672119141"/>
			<point x="388.698059082" y="-29"/>
			<point x="249.0427856445" y="-29" type="qcurve" smooth="yes"/>
			<point x="200.5940551758" y="-29"/>
			<point x="26.7518920898" y="153"/>
		</contour>
	</outline>
	<anchor name="bottom" x="404" y="0"/>
	<anchor name="ogonek" x="871" y="20"/>
	<anchor name="top" x="572" y="1000"/>
	<anchor name="topright" x="915" y="1000"/>
	<anchor name="cy_descender" x="1018" y="134"/>
</glyph>
<glyph name="v" format="2">
	<unicode hex="0076"/>
	<advance width="848"/>
	<outline>
		<contour>
			<point x="224.892578125" y="-22.8668212891" type="line"/>
			<point x="152.795715332" y="516.7358398438" type="line"/>
			<point x="105.9527587891" y="819.5961914062" type="line"/>
			<point x="-36.1134033203" y="821.5961914062" type="line"/>
			<point x="-14.9133300781" y="943.5991210938" type="line"/>
			<point x="130.7073974609" y="1000.5991210938" type="line"/>
			<point x="258.5318603516" y="1000.5991210938" type="line"/>
			<point x="320.216796875" y="444.7173461914" type="line"/>
			<point x="335.084777832" y="298.7665405273" type="line"/>
			<point x="334.5056152344" y="182.3850708008" type="line"/>
			<point x="346.5056152344" y="182.3850708008" type="line"/>
			<point x="441.0798950195" y="297.2190551758" type="line"/>
			<point x="617.4296875" y="499.7658691406"/>
			<point x="689.8645019531" y="623.0881958008"/>
			<point x="689.8645019531" y="699.4249267578" type="qcurve" smooth="yes"/>
			<point x="689.8645019531" y="792.6666259766"/>
			<point x="573.8660888672" y="878.2062988281"/>
			<point x="573.8660888672" y="911.8660888672" type="qcurve" smooth="yes"/>
			<point x="573.8660888672" y="954.0671386719"/>
			<point x="643.6264648438" y="1022.3833618164"/>
			<point x="693.0103149414" y="1022.3833618164" type="qcurve" smooth="yes"/>
			<point x="731.6757202148" y="1022.3833618164"/>
			<point x="817.8828125" y="945.7540893555"/>
			<point x="817.8828125" y="805.8011474609" type="qcurve" smooth="yes"/>
			<point x="817.8828125" y="691.8886108398"/>
			<point x="532.0575561523" y="275.6990356445"/>
			<point x="307.8698730469" y="-7.8668212891" type="qcurve"/>
		</contour>
	</outline>
	<anchor name="bottom" x="513" y="0"/>
	<anchor name="top" x="513" y="1000"/>
</glyph>
<glyph name="w" format="2">
	<unicode hex="0077"/>
	<advance width="1339"/>
	<outline>
		<contour>
			<point x="226.0950317383" y="-36" type="line"/>
			<point x="162.9624023438" y="480.936340332" type="line"/>
			<point x="105.9527587891" y="819.5961914062" type="line"/>
			<point x="-20.0404052734" y="816.5961914062" type="line"/>
			<point x="-15.0798339844" y="942.5991210938" type="line"/>
			<point x="-13.3241577148" y="1000.5991210938" type="line"/>
			<point x="256.6758422852" y="1000.5991210938" type="line"/>
			<point x="300.8791503906" y="506.2788085938" type="line"/>
			<point x="326.0529785156" y="307.8688964844" type="line"/>
			<point x="328.9531860352" y="187.5051879883" type="line"/>
			<point x="340.9531860352" y="187.5051879883" type="line"/>
			<point x="399.5643920898" y="285.8576049805" type="line"/>
			<point x="454.8382568359" y="351.2034301758"/>
			<point x="564.3062133789" y="496.6071166992"/>
			<point x="622.4614257812" y="586.5969848633" type="qcurve"/>
			<point x="567.3290405273" y="831.3991699219" type="line"/>
			<point x="464.4364624023" y="831.2211914062" type="line"/>
			<point x="468.4563598633" y="949.4020996094" type="line"/>
			<point x="478.9934082031" y="1000.5991210938" type="line"/>
			<point x="725.0919189453" y="1000.5991210938" type="line"/>
			<point x="781.8905639648" y="520.2698974609" type="line"/>
			<point x="810.2014770508" y="296.8317260742" type="line"/>
			<point x="814.5033569336" y="180.6117553711" type="line"/>
			<point x="826.5033569336" y="180.6117553711" type="line"/>
			<point x="883.598449707" y="270.940612793" type="line"/>
			<point x="1069.6833496094" y="488.1676635742"/>
			<point x="1195.8455200195" y="642.8348388672"/>
			<point x="1177.1287231445" y="723.9865722656" type="qcurve" smooth="yes"/>
			<point x="1161.3364257812" y="795.2568359375"/>
			<point x="960.2313842773" y="881.5838012695"/>
			<point x="958.4284057617" y="921.8706054688" type="qcurve" smooth="yes"/>
			<point x="956.6254272461" y="972.1363525391"/>
			<point x="1029.3001098633" y="1035.5991210938"/>
			<point x="1081.9450073242" y="1035.5991210938" type="qcurve" smooth="yes"/>
			<point x="1164.0715332031" y="983.8201904297"/>
			<point x="1306.3577880859" y="918.7961425781"/>
			<point x="1306.3577880859" y="794.9931640625" type="qcurve" smooth="yes"/>
			<point x="1306.3577880859" y="643.8946533203"/>
			<point x="947.7739257812" y="305.0576782227"/>
			<point x="754.1481933594" y="-17" type="qcurve"/>
			<point x="715.3160400391" y="-32" type="line"/>
			<point x="655.9052734375" y="370.7404174805" type="line"/>
			<point x="648.3392944336" y="514.1518554688" type="line"/>
			<point x="636.3392944336" y="514.1518554688" type="line"/>
			<point x="567.0463867188" y="387.6092529297" type="line"/>
			<point x="515.6203613281" y="311.4306640625"/>
			<point x="369.7533569336" y="131.1785888672"/>
			<point x="249.327331543" y="-19" type="qcurve"/>
		</contour>
	</outline>
	<anchor name="bottom" x="787" y="0"/>
	<anchor name="top" x="717" y="1000"/>
</glyph>
<glyph name="x" format="2">
	<unicode hex="0078"/>
	<advance width="923"/>
	<outline>
		<contour>
			<point x="116.4353637695" y="-18.9334716797" type="qcurve"/>
			<point x="-108.4096069336" y="56.0665283203" type="line"/>
			<point x="-72.4096069336" y="208.0665283203" type="line"/>
			<point x="138.4353637695" y="208.0665283203" type="line" smooth="yes"/>
			<point x="160.8880004883" y="206.6317138672"/>
			<point x="275.8131713867" y="230.6099243164"/>
			<point x="381.5149536133" y="295.0727539062" type="qcurve" smooth="yes"/>
			<point x="408.0138549805" y="296.5284423828"/>
			<point x="441.2637329102" y="308.2709350586"/>
			<point x="459.2637939453" y="301.9108276367" type="qcurve"/>
			<point x="225.0778808594" y="844.810546875" type="line"/>
			<point x="74.2438964844" y="824.8503417969" type="line"/>
			<point x="76.1245117188" y="936.8134765625" type="line"/>
			<point x="165.4865722656" y="1024.8134765625" type="line"/>
			<point x="351.4865722656" y="984.8134765625" type="line"/>
			<point x="406.6022949219" y="790.9146118164" type="line"/>
			<point x="426.0326538086" y="695.3895874023" type="line"/>
			<point x="438.0326538086" y="695.3895874023" type="line"/>
			<point x="522.6931152344" y="777.9682617188" type="line" smooth="yes"/>
			<point x="549.6477661133" y="803.5181884766"/>
			<point x="613.6284790039" y="867.7219848633"/>
			<point x="654.1448974609" y="890.3909912109" type="qcurve" smooth="yes"/>
			<point x="703.2868041992" y="913.2586669922"/>
			<point x="817.0326538086" y="1023.7469482422"/>
			<point x="858.8662719727" y="1023.7469482422" type="qcurve" smooth="yes"/>
			<point x="874.9716796875" y="1023.7469482422"/>
			<point x="945.3207397461" y="928.6661987305"/>
			<point x="945.3207397461" y="841.6661987305" type="qcurve" smooth="yes"/>
			<point x="945.3207397461" y="766.6661987305"/>
			<point x="838.4014892578" y="631.7469482422"/>
			<point x="776.4014892578" y="619.7469482422" type="qcurve"/>
			<point x="741.4014892578" y="632.7469482422" type="line"/>
			<point x="741.4014892578" y="714.9084472656" type="line" smooth="yes"/>
			<point x="741.4014892578" y="743.9084472656"/>
			<point x="724.3029785156" y="765.7469482422"/>
			<point x="696.9727783203" y="765.7469482422" type="qcurve" smooth="yes"/>
			<point x="651.0256347656" y="765.7469482422"/>
			<point x="529.1204833984" y="727.5433349609"/>
			<point x="471.1564941406" y="697.5223388672" type="qcurve" smooth="yes"/>
			<point x="447.9781494141" y="690.720703125"/>
			<point x="404.2184448242" y="670.2027587891"/>
			<point x="386.9215087891" y="675.0253295898" type="qcurve"/>
			<point x="615.5676879883" y="124.0029296875" type="line"/>
			<point x="744.2015991211" y="131.0029296875" type="line"/>
			<point x="775.241027832" y="48" type="line"/>
			<point x="647.8789672852" y="-30" type="line"/>
			<point x="502.8789672852" y="37" type="line"/>
			<point x="443.5064086914" y="208.4191894531" type="line"/>
			<point x="423.8038330078" y="287.4297485352" type="line"/>
			<point x="411.8038330078" y="287.4297485352" type="line"/>
			<point x="346.399230957" y="224.0518188477" type="line"/>
			<point x="336.9466552734" y="221.1176147461"/>
			<point x="291.174987793" y="168.1850585938"/>
			<point x="267.5801391602" y="152.500793457" type="qcurve" smooth="yes"/>
			<point x="184.3370361328" y="86.0536499023"/>
			<point x="107.9284057617" y="-13.8391723633"/>
		</contour>
	</outline>
	<anchor name="bottom" x="522" y="0"/>
	<anchor name="top" x="522" y="1000"/>
	<anchor name="cy_descender" x="832" y="134"/>
	<anchor name="center" x="432" y="502"/>
</glyph>
<glyph name="y" format="2">
	<unicode hex="0079"/>
	<advance width="896"/>
	<outline>
		<contour>
			<point x="-302.1270141602" y="-430.7377929688" type="line"/>
			<point x="-269.1270141602" y="-271.7377929688" type="line"/>
			<point x="-33.4745483398" y="-271.7377929688" type="line" smooth="yes"/>
			<point x="125.0474243164" y="-271.7377929688"/>
			<point x="188.5536499023" y="-194.8363037109"/>
			<point x="284.7678833008" y="-62" type="qcurve" smooth="yes"/>
			<point x="347.5204467773" y="15" type="line"/>
			<point x="244.1909179688" y="9" type="line"/>
			<point x="243.1072998047" y="78"/>
			<point x="143.1405029297" y="629.5961914062"/>
			<point x="105.9929199219" y="831.5961914062" type="qcurve"/>
			<point x="-42.2799072266" y="820.5961914062" type="line"/>
			<point x="-34.0798339844" y="941.5991210938" type="line"/>
			<point x="159.2074584961" y="1002.5991210938" type="line"/>
			<point x="253.3677368164" y="1002.5991210938" type="line"/>
			<point x="302.3864746094" y="867.5991210938" type="line"/>
			<point x="373.3424072266" y="253.1507568359" type="line"/>
			<point x="375.9379882812" y="144.5092773438" type="line"/>
			<point x="387.9379882812" y="144.5092773438" type="line"/>
			<point x="463.5523071289" y="254.3077392578" type="line" smooth="yes"/>
			<point x="583.2587280273" y="426.962890625"/>
			<point x="693.1052246094" y="644.5434570312"/>
			<point x="664.5654296875" y="787.0725097656" type="qcurve" smooth="yes"/>
			<point x="647.3431396484" y="862.3151855469"/>
			<point x="588.207824707" y="915.2971191406"/>
			<point x="588.207824707" y="916.2077636719" type="qcurve" smooth="yes"/>
			<point x="588.207824707" y="964.2764892578"/>
			<point x="654.8676147461" y="1015.4139404297"/>
			<point x="703.1035766602" y="1015.4139404297" type="qcurve" smooth="yes"/>
			<point x="777.2708129883" y="1015.4139404297"/>
			<point x="855.6756591797" y="922.5422363281"/>
			<point x="855.6756591797" y="850.8435058594" type="qcurve" smooth="yes"/>
			<point x="855.6756591797" y="714.3807373047"/>
			<point x="438.4165649414" y="137.6035766602"/>
			<point x="409.150390625" y="26" type="qcurve" smooth="yes"/>
			<point x="378.7970581055" y="-18" type="line" smooth="yes"/>
			<point x="258.4320068359" y="-196.9727783203"/>
			<point x="158.5952148438" y="-476.7377929688"/>
			<point x="-21.4745483398" y="-476.7377929688" type="qcurve"/>
		</contour>
	</outline>
	<anchor name="bottom" x="782" y="0"/>
	<anchor name="top" x="504" y="1000"/>
</glyph>
<glyph name="z" format="2">
	<unicode hex="007A"/>
	<advance width="783"/>
	<outline>
		<contour>
			<point x="-50.1884155273" y="-2.9436035156" type="line"/>
			<point x="-81.9978637695" y="111" type="line"/>
			<point x="18.6171875" y="216.2622070312"/>
			<point x="196.0837402344" y="407.0727539062"/>
			<point x="294.1588745117" y="503.7688598633" type="qcurve" smooth="yes"/>
			<point x="378.4444580078" y="582.0601196289"/>
			<point x="538.7631225586" y="714.6459960938"/>
			<point x="604.4307861328" y="759.00390625" type="qcurve"/>
			<point x="189.3654785156" y="765.00390625" type="line"/>
			<point x="109.4320068359" y="639.0032958984" type="line"/>
			<point x="16.2105712891" y="639.0032958984" type="line"/>
			<point x="108.1440429688" y="957.00390625" type="line"/>
			<point x="189.1440429688" y="1008.00390625" type="line"/>
			<point x="677.8928222656" y="1008.00390625" type="line"/>
			<point x="731.232421875" y="879.00390625" type="line"/>
			<point x="661.3902587891" y="796.6459960938"/>
			<point x="484.8134155273" y="606.2059936523"/>
			<point x="394.45703125" y="507.3349609375" type="qcurve" smooth="yes"/>
			<point x="313.7086181641" y="418.4775390625"/>
			<point x="164.7231445312" y="298.23828125"/>
			<point x="109.4362792969" y="266" type="qcurve"/>
			<point x="514.4633178711" y="240.8647460938" type="line"/>
			<point x="634.1968383789" y="416.5319824219" type="line"/>
			<point x="727.4182739258" y="404.7348632812" type="line"/>
			<point x="586.684753418" y="36.0676269531" type="line"/>
			<point x="506.684753418" y="-7.9323730469" type="line"/>
			<point x="-37.4379272461" y="39.1510009766" type="line"/>
		</contour>
	</outline>
	<anchor name="bottom" x="443" y="0"/>
	<anchor name="top" x="463" y="1000"/>
	<anchor name="_liga" x="0" y="0"/>
</glyph>
